<svg width="1675" height="514" viewBox="0 0 1675 514" fill="none" xmlns="http://www.w3.org/2000/svg">
<path d="M6.64999 340.77H98.79C122.11 340.77 140.59 346.44 154.23 357.77C167.86 369.1 174.68 383.64 174.68 401.38C174.68 419.12 168.93 433.2 157.43 443.63C145.93 454.06 126.39 459.28 98.79 459.28H66.27V506.58C66.27 508.39 65.62 509.95 64.3 511.26C62.99 512.58 61.43 513.23 59.62 513.23H6.64999C4.83999 513.23 3.28 512.58 1.97 511.26C0.650001 509.95 0 508.39 0 506.58V347.42C0 345.61 0.650001 344.06 1.97 342.74C3.28 341.43 4.83999 340.77 6.64999 340.77ZM66.52 386.59V413.69H97.81C101.59 413.69 104.66 412.54 107.05 410.24C109.43 407.94 110.62 404.74 110.62 400.63C110.62 396.52 109.47 393.16 107.17 390.53C104.87 387.91 101.75 386.59 97.81 386.59H66.52Z" fill="#4273FE"/>
<path d="M264.61 465.19H362.92C364.72 465.19 366.28 465.85 367.6 467.16C368.91 468.47 369.57 470.03 369.57 471.84V506.58C369.57 508.39 368.91 509.95 367.6 511.26C366.28 512.58 364.72 513.23 362.92 513.23H207.2C205.39 513.23 203.83 512.58 202.52 511.26C201.2 509.95 200.55 508.39 200.55 506.58V347.42C200.55 345.61 201.2 344.06 202.52 342.74C203.83 341.43 205.39 340.77 207.2 340.77H360.45C362.26 340.77 363.81 341.43 365.13 342.74C366.44 344.06 367.1 345.61 367.1 347.42V382.16C367.1 383.97 366.44 385.53 365.13 386.84C363.81 388.15 362.26 388.81 360.45 388.81H264.61V404.33H346.9C348.71 404.33 350.26 404.99 351.58 406.3C352.89 407.62 353.55 409.18 353.55 410.98V443.01C353.55 444.82 352.89 446.38 351.58 447.69C350.26 449 348.71 449.66 346.9 449.66H264.61V465.19V465.19Z" fill="#4273FE"/>
<path d="M474.03 465.19H572.34C574.15 465.19 575.7 465.85 577.02 467.16C578.33 468.47 578.99 470.03 578.99 471.84V506.58C578.99 508.39 578.33 509.95 577.02 511.26C575.7 512.58 574.15 513.23 572.34 513.23H416.62C414.81 513.23 413.25 512.58 411.94 511.26C410.62 509.95 409.97 508.39 409.97 506.58V347.42C409.97 345.61 410.62 344.06 411.94 342.74C413.25 341.43 414.81 340.77 416.62 340.77H569.87C571.68 340.77 573.24 341.43 574.56 342.74C575.87 344.06 576.53 345.61 576.53 347.42V382.16C576.53 383.97 575.87 385.53 574.56 386.84C573.24 388.15 571.68 388.81 569.87 388.81H474.03V404.33H556.33C558.13 404.33 559.69 404.99 561.01 406.3C562.32 407.62 562.98 409.18 562.98 410.98V443.01C562.98 444.82 562.32 446.38 561.01 447.69C559.69 449 558.13 449.66 556.33 449.66H474.03V465.19Z" fill="#4273FE"/>
<path d="M799.74 505.59C800.07 506.25 800.23 507.15 800.23 508.3C800.23 509.45 799.69 510.56 798.63 511.63C797.56 512.7 796.29 513.23 794.81 513.23H738.88C733.95 513.23 730.5 511.18 728.53 507.07L706.85 458.29H686.15V506.58C686.15 508.39 685.49 509.95 684.18 511.26C682.86 512.58 681.31 513.23 679.5 513.23H626.28C624.47 513.23 622.91 512.58 621.6 511.26C620.28 509.95 619.63 508.39 619.63 506.58V347.42C619.63 345.61 620.28 344.06 621.6 342.74C622.91 341.43 624.47 340.77 626.28 340.77H722.12C744.62 340.77 762.44 346.11 775.58 356.78C788.72 367.46 795.29 382 795.29 400.39C795.29 422.73 786.67 438.91 769.42 448.93L799.74 505.59ZM686.16 386.59V412.71H716.96C720.57 412.71 723.37 411.52 725.34 409.14C727.31 406.76 728.3 403.76 728.3 400.15C728.3 396.54 727.35 393.37 725.46 390.66C723.57 387.95 720.74 386.6 716.96 386.6H686.16V386.59Z" fill="#4273FE"/>
<path d="M1074.58 459.03C1074.58 495.17 1051.42 513.23 1005.1 513.23H903.59C901.78 513.23 900.22 512.58 898.91 511.26C897.59 509.95 896.94 508.39 896.94 506.58V347.42C896.94 345.61 897.59 344.06 898.91 342.74C900.22 341.43 901.78 340.77 903.59 340.77H1002.64C1025.96 340.77 1043.17 345 1054.26 353.46C1065.35 361.92 1070.89 374.69 1070.89 391.77V392.51C1070.89 400.39 1068.75 407.13 1064.49 412.71C1060.21 418.3 1055.78 421.83 1051.18 423.31C1057.59 425.28 1063.09 429.59 1067.69 436.24C1072.28 442.89 1074.58 450.49 1074.58 459.03ZM1001.53 401.99C1003.26 399.61 1004.12 396.94 1004.12 393.98C1004.12 391.02 1003.26 388.48 1001.53 386.34C999.81 384.2 997.3 383.14 994.02 383.14H961V405.56H994.02C997.3 405.56 999.81 404.37 1001.53 401.99ZM961 446.71V470.86H996.73C1000.51 470.86 1003.34 469.59 1005.23 467.04C1007.12 464.5 1008.06 461.66 1008.06 458.54V458.29C1008.06 455.17 1007.03 452.46 1004.98 450.16C1002.92 447.86 1000.18 446.71 996.73 446.71H961Z" fill="#E96D8A"/>
<path d="M1281.78 412.35V441.65C1281.78 458.15 1277.67 471.93 1269.46 482.97C1261.25 494.02 1250.49 501.87 1237.19 506.51C1223.89 511.15 1208.2 513.47 1190.13 513.47C1172.06 513.47 1156.37 511.15 1143.07 506.51C1129.76 501.87 1119 494.02 1110.79 482.97C1102.58 471.92 1098.47 457.99 1098.47 441.17V412.82C1098.47 388.64 1106.97 370.54 1123.97 358.53C1140.97 346.52 1163.02 340.51 1190.13 340.51C1217.23 340.51 1239.28 346.52 1256.28 358.53C1273.28 370.54 1281.78 388.49 1281.78 412.35ZM1165 408.36V445.63C1165 452 1167.26 456.89 1171.78 460.31C1176.3 463.73 1182.41 465.43 1190.13 465.43C1197.85 465.43 1203.96 463.69 1208.48 460.19C1213 456.69 1215.25 451.76 1215.25 445.39V408.59C1215.25 402.23 1212.99 397.3 1208.48 393.8C1203.96 390.3 1197.84 388.56 1190.13 388.56C1182.41 388.56 1176.29 390.27 1171.78 393.69C1167.26 397.11 1165 402 1165 408.36Z" fill="#E96D8A"/>
<path d="M1307.15 340.77H1477.15C1478.96 340.77 1480.51 341.43 1481.83 342.74C1483.14 344.06 1483.8 345.61 1483.8 347.42V387.09C1483.8 388.9 1483.14 390.46 1481.83 391.77C1480.51 393.09 1478.96 393.74 1477.15 393.74H1424.18V506.58C1424.18 508.39 1423.52 509.95 1422.21 511.26C1420.89 512.58 1419.34 513.23 1417.53 513.23H1366.77C1364.96 513.23 1363.4 512.58 1362.09 511.26C1360.77 509.95 1360.12 508.39 1360.12 506.58V393.74H1307.14C1305.33 393.74 1303.77 393.09 1302.46 391.77C1301.14 390.46 1300.49 388.9 1300.49 387.09V347.42C1300.49 345.61 1301.14 344.06 1302.46 342.74C1303.79 341.43 1305.35 340.77 1307.15 340.77Z" fill="#E96D8A"/>
<path d="M1657.88 421.76C1669.29 429.93 1675 442.18 1675 458.52C1675 474.86 1666.7 488.11 1650.12 498.26C1633.53 508.41 1611.52 513.49 1584.09 513.49C1556.66 513.49 1535.34 508.49 1520.15 498.48C1504.95 488.47 1497.36 476.15 1497.36 461.5C1497.36 457.92 1499.25 456.13 1503.02 456.13H1553.53C1556.98 456.13 1559.77 457.14 1561.91 459.16C1566.51 463.36 1574.47 465.45 1585.81 465.45C1601.41 465.45 1609.22 463.15 1609.22 458.55C1609.22 455.69 1606.76 453.43 1601.83 451.77C1596.9 450.11 1587.13 448.48 1572.51 446.89C1526.03 441.5 1502.78 424.29 1502.78 395.26C1502.78 378.92 1510.25 365.72 1525.2 355.65C1540.14 345.58 1560.15 340.54 1585.19 340.54C1610.24 340.54 1630.48 345.96 1645.92 356.79C1661.36 367.62 1669.08 379.07 1669.08 391.13C1669.08 392.76 1668.54 394.06 1667.48 395.04C1666.41 396.02 1664.98 396.51 1663.17 396.51H1610.2C1607.24 396.51 1604.69 395.58 1602.56 393.72C1598.62 390.31 1592.71 388.6 1584.82 388.6C1573.81 388.6 1568.31 390.82 1568.31 395.26C1568.31 397.64 1570.45 399.5 1574.72 400.85C1578.99 402.19 1587.53 403.59 1600.35 405.01C1627.28 408 1646.46 413.59 1657.88 421.76Z" fill="#E96D8A"/>
<path d="M983.79 308.44C961.45 308.44 939.11 308.08 916.79 308.57C902.41 308.88 887.99 309.91 873.74 311.77C870.1 312.25 865.78 316.47 863.94 320.07C857.84 332.04 857.17 343.26 858.44 356.39C858.91 361.24 859.6 367.98 859.76 372.85C859.9 377.23 857.79 378.83 853.58 377.35C822.4 366.39 816.12 354.58 791.33 332.27C785.29 326.83 779.26 321.36 773.47 315.65C767.04 309.31 757.96 309.88 750.48 309.73C739.13 309.5 706.04 308.54 694.68 308.45C688.49 308.4 686.11 304.19 685.38 299.03C683.82 288 682.04 276.95 681.45 265.85C680.03 239.41 678.82 212.95 678.31 186.49C677.51 145.59 677.32 63.63 676.97 22.72C676.88 12.57 677.37 12.39 687.67 12.13C724.15 11.2 760.63 10.15 797.1 9.15998C814.06 8.69998 831.02 8.19002 847.99 7.89002C853.19 7.80002 890.59 6.46002 900.43 6.01002C918.49 5.19002 933.2 4.89002 948.78 4.64002C956.68 4.51002 964.57 3.99998 972.46 3.71998C999.86 2.76998 1027.27 1.77998 1054.67 0.969979C1064.63 0.679979 1066.72 2.27002 1067.61 12.14C1069.8 36.38 1072.36 101.67 1073.29 125.97C1074.91 168.46 1075.49 210.98 1076.32 253.5C1076.62 268.79 1076.41 284.09 1076.41 299.39C1076.41 304.85 1073.54 307.4 1068.19 307.53C1053.78 307.86 1039.38 308.36 1024.97 308.54C1011.25 308.72 997.52 308.58 983.79 308.58C983.79 308.52 983.79 308.48 983.79 308.44Z" fill="#46D8D8"/>
<path d="M807.53 209.93C836.078 209.93 859.22 186.788 859.22 158.24C859.22 129.692 836.078 106.55 807.53 106.55C778.982 106.55 755.84 129.692 755.84 158.24C755.84 186.788 778.982 209.93 807.53 209.93Z" fill="black"/>
<path d="M970.93 209.93C999.478 209.93 1022.62 186.788 1022.62 158.24C1022.62 129.692 999.478 106.55 970.93 106.55C942.382 106.55 919.24 129.692 919.24 158.24C919.24 186.788 942.382 209.93 970.93 209.93Z" fill="black"/>
<path d="M951.32 187.54C955.363 187.54 958.64 184.263 958.64 180.22C958.64 176.177 955.363 172.9 951.32 172.9C947.277 172.9 944 176.177 944 180.22C944 184.263 947.277 187.54 951.32 187.54Z" fill="white"/>
<path d="M890.98 253.96C878.82 253.96 866.73 250.86 856.62 244.7C854.26 243.26 853.51 240.18 854.95 237.83C856.39 235.47 859.48 234.73 861.82 236.16C878.08 246.06 901.39 246.5 918.52 237.21C920.95 235.9 923.98 236.79 925.3 239.22C926.62 241.65 925.72 244.68 923.29 246C913.48 251.32 902.2 253.96 890.98 253.96Z" fill="black"/>
<path d="M984.63 168.13C996.736 168.13 1006.55 158.316 1006.55 146.21C1006.55 134.104 996.736 124.29 984.63 124.29C972.524 124.29 962.71 134.104 962.71 146.21C962.71 158.316 972.524 168.13 984.63 168.13Z" fill="white"/>
<path d="M786.43 187.54C790.473 187.54 793.75 184.263 793.75 180.22C793.75 176.177 790.473 172.9 786.43 172.9C782.387 172.9 779.11 176.177 779.11 180.22C779.11 184.263 782.387 187.54 786.43 187.54Z" fill="white"/>
<path d="M819.73 168.13C831.836 168.13 841.65 158.316 841.65 146.21C841.65 134.104 831.836 124.29 819.73 124.29C807.624 124.29 797.81 134.104 797.81 146.21C797.81 158.316 807.624 168.13 819.73 168.13Z" fill="white"/>
<path d="M970.6 82.35C977.33 82.35 984.02 84.06 989.62 87.47C990.93 88.27 991.34 89.97 990.54 91.27C989.74 92.58 988.03 92.99 986.74 92.19C977.74 86.71 964.84 86.47 955.36 91.61C954.02 92.34 952.34 91.84 951.61 90.5C950.88 89.16 951.38 87.48 952.72 86.75C958.15 83.81 964.39 82.35 970.6 82.35Z" fill="black"/>
<path d="M807.3 82.35C814.03 82.35 820.72 84.06 826.32 87.47C827.63 88.27 828.04 89.97 827.24 91.27C826.44 92.58 824.73 92.99 823.44 92.19C814.44 86.71 801.54 86.47 792.06 91.61C790.72 92.34 789.04 91.84 788.31 90.5C787.58 89.16 788.08 87.48 789.42 86.75C794.85 83.81 801.09 82.35 807.3 82.35Z" fill="black"/>
</svg>
