<svg xmlns="http://www.w3.org/2000/svg" xmlns:xlink="http://www.w3.org/1999/xlink" xmlns:lucid="lucid" width="800" height="4290"><g transform="translate(1840 -200)" lucid:page-tab-id="8A5C~ol4sRoa"><path d="M-1068 3691.93c4.42 0 8 3.6 8 8V4032c0 4.42-3.58 8-8 8h-744c-4.42 0-8-3.58-8-8v-332.07c0-4.4 3.58-8 8-8z" stroke="#000" stroke-opacity="0" fill="#c7e8ac" fill-opacity=".5"/><path d="M-1812 4470c-4.42 0-8-3.58-8-8v-394c0-4.42 3.58-8 8-8h384c4.42 0 8 3.58 8 8v394c0 4.42-3.58 8-8 8z" stroke="#000" stroke-opacity="0" fill="#ffbbb1" fill-opacity=".5"/><path d="M-1068.6 4040c4.42 0 8 3.58 8 8v175.93c0 4.42-3.58 8-8 8H-1392c-4.42 0-8-3.58-8-8V4048c0-4.42 3.58-8 8-8z" stroke="#000" stroke-opacity="0" fill="#c7e8ac" fill-opacity=".5"/><path d="M-1068 2980c4.42 0 8 3.58 8 8v684c0 4.42-3.58 8-8 8h-744c-4.42 0-8-3.58-8-8v-684c0-4.42 3.58-8 8-8z" stroke="#000" stroke-opacity="0" fill="#c1e4f7" fill-opacity=".5"/><path d="M-1820 2448c0-4.42 3.58-8 8-8h743.4c4.42 0 8 3.58 8 8v504c0 4.42-3.58 8-8 8H-1812c-4.42 0-8-3.58-8-8z" stroke="#000" stroke-opacity="0" fill="#f9d2de" fill-opacity=".5"/><path d="M-1820 1368c0-4.42 3.58-8 8-8h744c4.42 0 8 3.58 8 8v1044c0 4.42-3.58 8-8 8h-744c-4.42 0-8-3.58-8-8z" stroke="#000" stroke-opacity="0" fill="#99d5ca" fill-opacity=".5"/><path d="M-1068 220c4.42 0 8 3.58 8 8v1104c0 4.42-3.58 8-8 8h-744c-4.42 0-8-3.58-8-8V228c0-4.42 3.58-8 8-8z" stroke="#000" stroke-opacity="0" fill="#ffeca9" fill-opacity=".5"/><path d="M-1302.2 484.8c3.53-2.65 9.26-2.65 12.8 0l67.2 50.4c3.53 2.65 3.53 6.95 0 9.6l-67.2 50.4c-3.54 2.65-9.27 2.65-12.8 0l-67.2-50.4c-3.54-2.65-3.54-6.95 0-9.6z" stroke="#000" stroke-opacity="0" stroke-width="4" fill="#fcc438"/><use xlink:href="#a" transform="matrix(1,0,0,1,-1370.8012983938129,485) translate(29.574999999999996 58.6)"/><use xlink:href="#b" transform="matrix(1,0,0,1,-1370.8012983938129,485) translate(71.525 58.6)"/><path d="M-1375.8 308c0-4.42 3.58-8 8-8h144c4.42 0 8 3.58 8 8v104c0 4.42-3.58 8-8 8h-144c-4.42 0-8-3.58-8-8z" stroke="#000" stroke-opacity="0" stroke-width="2" fill="#fcc438"/><use xlink:href="#c" transform="matrix(1,0,0,1,-1370.8012983938129,305) translate(14.074999999999996 58.6)"/><use xlink:href="#d" transform="matrix(1,0,0,1,-1370.8012983938129,305) translate(77.975 58.6)"/><path d="M-1295.8 420.5v46.03" stroke="#333" fill="none"/><path d="M-1295.3 420.5h-1v-.5h1" fill="#333"/><path d="M-1295.8 481.3l-4.64-14.27h9.27z" stroke="#333" fill="#333"/><path d="M-1260 648c0-4.42 3.58-8 8-8h144c4.42 0 8 3.58 8 8v104c0 4.42-3.58 8-8 8h-144c-4.42 0-8-3.58-8-8z" stroke="#000" stroke-opacity="0" stroke-width="2" fill="#fcc438"/><use xlink:href="#e" transform="matrix(1,0,0,1,-1255,645) translate(45.074999999999996 58.6)"/><use xlink:href="#f" transform="matrix(1,0,0,1,-1255,645) translate(88.975 58.6)"/><path d="M-1480 648c0-4.42 3.58-8 8-8h144c4.42 0 8 3.58 8 8v104c0 4.42-3.58 8-8 8h-144c-4.42 0-8-3.58-8-8z" stroke="#000" stroke-opacity="0" stroke-width="2" fill="#fcc438"/><use xlink:href="#e" transform="matrix(1,0,0,1,-1475,645) translate(21.64999999999999 47.8)"/><use xlink:href="#g" transform="matrix(1,0,0,1,-1475,645) translate(65.55 47.8)"/><use xlink:href="#h" transform="matrix(1,0,0,1,-1475,645) translate(92.45 47.8)"/><use xlink:href="#i" transform="matrix(1,0,0,1,-1475,645) translate(12.674999999999997 69.4)"/><use xlink:href="#j" transform="matrix(1,0,0,1,-1475,645) translate(71.475 69.4)"/><path d="M-1480.3 848c0-4.42 3.58-8 8-8h144c4.42 0 8 3.58 8 8v104c0 4.42-3.58 8-8 8h-144c-4.42 0-8-3.58-8-8z" stroke="#000" stroke-opacity="0" stroke-width="2" fill="#fcc438"/><use xlink:href="#k" transform="matrix(1,0,0,1,-1475.3012983938452,845) translate(3.5999999999999943 47.8)"/><use xlink:href="#l" transform="matrix(1,0,0,1,-1475.3012983938452,845) translate(42.5 47.8)"/><use xlink:href="#m" transform="matrix(1,0,0,1,-1475.3012983938452,845) translate(85.45 47.8)"/><use xlink:href="#n" transform="matrix(1,0,0,1,-1475.3012983938452,845) translate(29.574999999999996 69.4)"/><path d="M-1400 760.5V823.62" stroke="#333" fill="none"/><path d="M-1399.5 760.5h-1v-.5h1" fill="#333"/><path d="M-1400 838.38l-4.64-14.26h9.28z" stroke="#333" fill="#333"/><path d="M-1480 2648c0-4.42 3.58-8 8-8h144c4.42 0 8 3.58 8 8v104c0 4.42-3.58 8-8 8h-144c-4.42 0-8-3.58-8-8z" stroke="#000" stroke-opacity="0" stroke-width="2" fill="#de5f85"/><use xlink:href="#o" transform="matrix(1,0,0,1,-1475,2645) translate(0.09999999999999432 58.6)"/><use xlink:href="#p" transform="matrix(1,0,0,1,-1475,2645) translate(58.05 58.6)"/><path d="M-1480 2828c0-4.42 3.58-8 8-8h144c4.42 0 8 3.58 8 8v104c0 4.42-3.58 8-8 8h-144c-4.42 0-8-3.58-8-8z" stroke="#000" stroke-opacity="0" stroke-width="2" fill="#de5f85"/><use xlink:href="#q" transform="matrix(1,0,0,1,-1475,2825) translate(42.574999999999996 47.8)"/><use xlink:href="#r" transform="matrix(1,0,0,1,-1475,2825) translate(29.074999999999996 69.4)"/><path d="M-1400 2760.5v43.12" stroke="#333" fill="none"/><path d="M-1399.5 2760.5h-1v-.5h1" fill="#333"/><path d="M-1400 2818.38l-4.64-14.26h9.28z" stroke="#333" fill="#333"/><path d="M-1480.6 3548c0-4.42 3.58-8 8-8h144c4.42 0 8 3.58 8 8v104c0 4.42-3.58 8-8 8h-144c-4.42 0-8-3.58-8-8z" stroke="#000" stroke-opacity="0" stroke-width="2" fill="#3aa6dd"/><use xlink:href="#s" transform="matrix(1,0,0,1,-1475.6025967877358,3545) translate(30.049999999999997 47.8)"/><use xlink:href="#t" transform="matrix(1,0,0,1,-1475.6025967877358,3545) translate(78 47.8)"/><use xlink:href="#u" transform="matrix(1,0,0,1,-1475.6025967877358,3545) translate(36.074999999999996 69.4)"/><path d="M-1700 3128c0-4.42 3.58-8 8-8h144c4.42 0 8 3.58 8 8v104c0 4.42-3.58 8-8 8h-144c-4.42 0-8-3.58-8-8z" stroke="#000" stroke-opacity="0" stroke-width="2" fill="#3aa6dd"/><use xlink:href="#s" transform="matrix(1,0,0,1,-1695,3125) translate(24.125 47.8)"/><use xlink:href="#v" transform="matrix(1,0,0,1,-1695,3125) translate(72.075 47.8)"/><use xlink:href="#w" transform="matrix(1,0,0,1,-1695,3125) translate(38.099999999999994 69.4)"/><path d="M-1406.4 3004.8c3.53-2.65 9.27-2.65 12.8 0l67.2 50.4c3.53 2.65 3.53 6.95 0 9.6l-67.2 50.4c-3.53 2.65-9.27 2.65-12.8 0l-67.2-50.4c-3.53-2.65-3.53-6.95 0-9.6z" stroke="#000" stroke-opacity="0" stroke-width="4" fill="#3aa6dd"/><use xlink:href="#x" transform="matrix(1,0,0,1,-1475,3005) translate(19.474999999999994 47.8)"/><use xlink:href="#y" transform="matrix(1,0,0,1,-1475,3005) translate(67.675 47.8)"/><use xlink:href="#z" transform="matrix(1,0,0,1,-1475,3005) translate(89.575 47.8)"/><use xlink:href="#A" transform="matrix(1,0,0,1,-1475,3005) translate(32.62499999999999 69.4)"/><path d="M-1593.63 3060.5h-14.34l-3 .4-2.77 1.14-2.4 1.83-1.82 2.4-1.14 2.75-.4 3v31.6h-1v-31.65l.42-3.2 1.24-3 2-2.6 2.6-2 3-1.25 3.2-.42h14.4m117 1h-85.87v-1h85.86" fill="#333"/><path d="M-1476.16 3060.5h-.5v-1h.54M-1620 3118.38l-4.64-14.26h9.28z" fill="#333"/><path d="M-1620 3120l-5.32-16.38h10.64m-9.27 1l3.95 12.14 3.95-12.14" fill="#333"/><use xlink:href="#B" transform="matrix(1,0,0,1,-1593.6257800357557,3050.6666666666665) translate(0 12.444444444444446)"/><path d="M-1700 3308c0-4.42 3.58-8 8-8h144c4.42 0 8 3.58 8 8v104c0 4.42-3.58 8-8 8h-144c-4.42 0-8-3.58-8-8z" stroke="#000" stroke-opacity="0" stroke-width="2" fill="#3aa6dd"/><use xlink:href="#C" transform="matrix(1,0,0,1,-1695,3305) translate(25.15 58.6)"/><use xlink:href="#D" transform="matrix(1,0,0,1,-1695,3305) translate(65 58.6)"/><path d="M-1400 2940.5v46.03" stroke="#333" fill="none"/><path d="M-1399.5 2940.5h-1v-.5h1" fill="#333"/><path d="M-1400 3001.3l-4.64-14.27h9.28z" stroke="#333" fill="#333"/><path d="M-1480.6 3728c0-4.42 3.58-8 8-8h144c4.42 0 8 3.58 8 8v104c0 4.42-3.58 8-8 8h-144c-4.42 0-8-3.58-8-8z" stroke="#000" stroke-opacity="0" stroke-width="2" fill="#7ab648"/><use xlink:href="#E" transform="matrix(1,0,0,1,-1475.6025967877358,3725) translate(32.55 37)"/><use xlink:href="#F" transform="matrix(1,0,0,1,-1475.6025967877358,3725) translate(99.5 37)"/><use xlink:href="#G" transform="matrix(1,0,0,1,-1475.6025967877358,3725) translate(32.099999999999994 58.6)"/><use xlink:href="#u" transform="matrix(1,0,0,1,-1475.6025967877358,3725) translate(36.074999999999996 80.20000000000002)"/><path d="M-1407 3904.8c3.53-2.65 9.26-2.65 12.8 0l67.2 50.4c3.53 2.65 3.53 6.95 0 9.6l-67.2 50.4c-3.54 2.65-9.27 2.65-12.8 0l-67.2-50.4c-3.54-2.65-3.54-6.95 0-9.6z" stroke="#000" stroke-opacity="0" stroke-width="4" fill="#7ab648"/><use xlink:href="#H" transform="matrix(1,0,0,1,-1475.6025967877358,3905) translate(29.599999999999994 58.6)"/><path d="M-1300 4088c0-4.42 3.58-8 8-8h144c4.42 0 8 3.58 8 8v104c0 4.42-3.58 8-8 8h-144c-4.42 0-8-3.58-8-8z" stroke="#000" stroke-opacity="0" stroke-width="2" fill="#7ab648"/><use xlink:href="#I" transform="matrix(1,0,0,1,-1295,4085) translate(58.05 58.6)"/><path d="M-1680 4088c0-4.42 3.58-8 8-8h144c4.42 0 8 3.58 8 8v104c0 4.42-3.58 8-8 8h-144c-4.42 0-8-3.58-8-8z" stroke="#000" stroke-opacity="0" stroke-width="2" fill="#c92d39"/><use xlink:href="#J" transform="matrix(1,0,0,1,-1675,4085) translate(41.925 26.19999999999999)"/><use xlink:href="#K" transform="matrix(1,0,0,1,-1675,4085) translate(84.175 26.19999999999999)"/><use xlink:href="#L" transform="matrix(1,0,0,1,-1675,4085) translate(14.174999999999997 47.79999999999999)"/><use xlink:href="#M" transform="matrix(1,0,0,1,-1675,4085) translate(115.825 47.79999999999999)"/><use xlink:href="#N" transform="matrix(1,0,0,1,-1675,4085) translate(10.649999999999991 69.39999999999999)"/><use xlink:href="#O" transform="matrix(1,0,0,1,-1675,4085) translate(84.5 69.39999999999999)"/><use xlink:href="#P" transform="matrix(1,0,0,1,-1675,4085) translate(35.074999999999996 91)"/><use xlink:href="#Q" transform="matrix(1,0,0,1,-1675,4085) translate(66.975 91)"/><path d="M-1400.6 3840.5v46.03" stroke="#333" fill="none"/><path d="M-1400.1 3840.5h-1v-.5h1" fill="#333"/><path d="M-1400.6 3901.3l-4.64-14.27h9.27z" stroke="#333" fill="#333"/><path d="M-1680 4268c0-4.42 3.58-8 8-8h144c4.42 0 8 3.58 8 8v104c0 4.42-3.58 8-8 8h-144c-4.42 0-8-3.58-8-8z" stroke="#000" stroke-opacity="0" stroke-width="2" fill="#c92d39"/><use xlink:href="#R" transform="matrix(1,0,0,1,-1675,4265) translate(1.3999999999999915 58.6)"/><use xlink:href="#S" transform="matrix(1,0,0,1,-1675,4265) translate(52.9 58.6)"/><path d="M-1300.5 4140h-203.12" stroke="#333" fill="none"/><path d="M-1300 4140.5h-.5v-1h.5" fill="#333"/><path d="M-1518.38 4140l14.26-4.64v9.28z" stroke="#333" fill="#333"/><path d="M-1480.6 2468c0-4.42 3.58-8 8-8h144c4.42 0 8 3.58 8 8v104c0 4.42-3.58 8-8 8h-144c-4.42 0-8-3.58-8-8z" stroke="#000" stroke-opacity="0" stroke-width="2" fill="#de5f85"/><use xlink:href="#T" transform="matrix(1,0,0,1,-1475.6025967877358,2465) translate(47.574999999999996 47.8)"/><use xlink:href="#U" transform="matrix(1,0,0,1,-1475.6025967877358,2465) translate(14.724999999999987 69.4)"/><path d="M-1400.6 2580.5v29.2c0 .17.13.3.3.3.17 0 .3.13.3.3v13.32" stroke="#333" fill="none"/><path d="M-1400.1 2580.5h-1v-.5h1" fill="#333"/><path d="M-1400 2638.38l-4.64-14.26h9.28z" stroke="#333" fill="#333"/><path d="M-1480 1028c0-4.42 3.58-8 8-8h144c4.42 0 8 3.58 8 8v104c0 4.42-3.58 8-8 8h-144c-4.42 0-8-3.58-8-8z" stroke="#000" stroke-opacity="0" stroke-width="2" fill="#fcc438"/><use xlink:href="#V" transform="matrix(1,0,0,1,-1475,1025) translate(21.125 47.8)"/><use xlink:href="#v" transform="matrix(1,0,0,1,-1475,1025) translate(75.075 47.8)"/><use xlink:href="#W" transform="matrix(1,0,0,1,-1475,1025) translate(42.074999999999996 69.4)"/><path d="M-1400 960.5v43.12" stroke="#333" fill="none"/><path d="M-1399.5 960.5h-1v-.5h1" fill="#333"/><path d="M-1400 1018.38l-4.64-14.26h9.28z" stroke="#333" fill="#333"/><path d="M-1480.3 1208c0-4.42 3.58-8 8-8h144c4.42 0 8 3.58 8 8v104c0 4.42-3.58 8-8 8h-144c-4.42 0-8-3.58-8-8z" stroke="#000" stroke-opacity="0" stroke-width="2" fill="#fcc438"/><use xlink:href="#X" transform="matrix(1,0,0,1,-1475.301298393868,1205) translate(26.549999999999997 58.6)"/><use xlink:href="#Y" transform="matrix(1,0,0,1,-1475.301298393868,1205) translate(77.45 58.6)"/><path d="M-1400.3 1140.5v43.12" stroke="#333" fill="none"/><path d="M-1399.8 1140.5h-1v-.5h1" fill="#333"/><path d="M-1400.3 1198.38l-4.64-14.26h9.27z" stroke="#333" fill="#333"/><path d="M-1480.3 1388c0-4.42 3.58-8 8-8h144c4.42 0 8 3.58 8 8v104c0 4.42-3.58 8-8 8h-144c-4.42 0-8-3.58-8-8z" stroke="#000" stroke-opacity="0" stroke-width="2" fill="#19967d"/><use xlink:href="#Z" transform="matrix(1,0,0,1,-1475.301298393868,1385) translate(28.599999999999994 58.6)"/><use xlink:href="#aa" transform="matrix(1,0,0,1,-1475.301298393868,1385) translate(88.44999999999999 58.6)"/><path d="M-1400.3 1320.5v43.12" stroke="#333" fill="none"/><path d="M-1399.8 1320.5h-1v-.5h1" fill="#333"/><path d="M-1400.3 1378.38l-4.64-14.26h9.27z" stroke="#333" fill="#333"/><path d="M-1480.3 1568c0-4.42 3.58-8 8-8h144c4.42 0 8 3.58 8 8v104c0 4.42-3.58 8-8 8h-144c-4.42 0-8-3.58-8-8z" stroke="#000" stroke-opacity="0" stroke-width="2" fill="#19967d"/><use xlink:href="#ab" transform="matrix(1,0,0,1,-1475.301298393868,1565) translate(19.674999999999997 58.6)"/><use xlink:href="#ac" transform="matrix(1,0,0,1,-1475.301298393868,1565) translate(80.575 58.6)"/><path d="M-1400.3 1500.5v43.12" stroke="#333" fill="none"/><path d="M-1399.8 1500.5h-1v-.5h1" fill="#333"/><path d="M-1400.3 1558.38l-4.64-14.26h9.27z" stroke="#333" fill="#333"/><path d="M-1480.6 1748c0-4.42 3.58-8 8-8h144c4.42 0 8 3.58 8 8v104c0 4.42-3.58 8-8 8h-144c-4.42 0-8-3.58-8-8z" stroke="#000" stroke-opacity="0" stroke-width="2" fill="#19967d"/><use xlink:href="#ad" transform="matrix(1,0,0,1,-1475.6025967877358,1745) translate(50.525 58.6)"/><path d="M-1400.3 1680.5v43.12" stroke="#333" fill="none"/><path d="M-1399.8 1680.5h-1v-.5h1" fill="#333"/><path d="M-1400.3 1738.38l-4.64-14.26h9.27z" stroke="#333" fill="#333"/><path d="M-1480.3 1928c0-4.42 3.58-8 8-8h144c4.42 0 8 3.58 8 8v104c0 4.42-3.58 8-8 8h-144c-4.42 0-8-3.58-8-8z" stroke="#000" stroke-opacity="0" stroke-width="2" fill="#19967d"/><use xlink:href="#ae" transform="matrix(1,0,0,1,-1475.301298393868,1925) translate(22.174999999999997 58.6)"/><use xlink:href="#af" transform="matrix(1,0,0,1,-1475.301298393868,1925) translate(66.075 58.6)"/><use xlink:href="#ag" transform="matrix(1,0,0,1,-1475.301298393868,1925) translate(87.97500000000001 58.6)"/><path d="M-1400.6 1860.5v43.12" stroke="#333" fill="none"/><path d="M-1400.1 1860.5h-1v-.5h1" fill="#333"/><path d="M-1400.6 1918.38l-4.64-14.26h9.27z" stroke="#333" fill="#333"/><path d="M-1480.3 2108c0-4.42 3.58-8 8-8h144c4.42 0 8 3.58 8 8v104c0 4.42-3.58 8-8 8h-144c-4.42 0-8-3.58-8-8z" stroke="#000" stroke-opacity="0" stroke-width="2" fill="#19967d"/><use xlink:href="#ah" transform="matrix(1,0,0,1,-1475.301298393868,2105) translate(43.55 58.6)"/><path d="M-1400.3 2040.5v43.12" stroke="#333" fill="none"/><path d="M-1399.8 2040.5h-1v-.5h1" fill="#333"/><path d="M-1400.3 2098.38l-4.64-14.26h9.27z" stroke="#333" fill="#333"/><path d="M-1480.3 2288c0-4.42 3.58-8 8-8h144c4.42 0 8 3.58 8 8v104c0 4.42-3.58 8-8 8h-144c-4.42 0-8-3.58-8-8z" stroke="#000" stroke-opacity="0" stroke-width="2" fill="#19967d"/><use xlink:href="#ai" transform="matrix(1,0,0,1,-1475.301298393868,2285) translate(25.624999999999993 58.6)"/><path d="M-1400.3 2220.5v43.12" stroke="#333" fill="none"/><path d="M-1399.8 2220.5h-1v-.5h1" fill="#333"/><path d="M-1400.3 2278.38l-4.64-14.26h9.27z" stroke="#333" fill="#333"/><path d="M-1400.6 2400.5v43.12" stroke="#333" fill="none"/><path d="M-1400.1 2400.5h-1v-.5h1" fill="#333"/><path d="M-1400.6 2458.38l-4.64-14.26h9.27z" stroke="#333" fill="#333"/><path d="M-1406.4 3364.8c3.53-2.65 9.27-2.65 12.8 0l67.2 50.4c3.53 2.65 3.53 6.95 0 9.6l-67.2 50.4c-3.53 2.65-9.27 2.65-12.8 0l-67.2-50.4c-3.53-2.65-3.53-6.95 0-9.6z" stroke="#000" stroke-opacity="0" stroke-width="4" fill="#3aa6dd"/><use xlink:href="#x" transform="matrix(1,0,0,1,-1475,3365) translate(19.474999999999994 47.8)"/><use xlink:href="#y" transform="matrix(1,0,0,1,-1475,3365) translate(67.675 47.8)"/><use xlink:href="#z" transform="matrix(1,0,0,1,-1475,3365) translate(89.575 47.8)"/><use xlink:href="#aj" transform="matrix(1,0,0,1,-1475,3365) translate(31.099999999999994 69.4)"/><path d="M-1539.5 3360h19.43c6.63 0 12 5.37 12 12v36c0 6.63 5.37 12 12 12h3.55" stroke="#333" fill="none"/><path d="M-1539.5 3360.5h-.5v-1h.5" fill="#333"/><path d="M-1477.76 3420l-14.26 4.64v-9.28z" stroke="#333" fill="#333"/><path d="M-1399.5 3346.53h-1v-95.73h1m0-21.6h-1v-111.6h1M-1399.5 3117.1v.5h-1v-.52M-1400 3361.3l-4.64-14.27h9.28z" fill="#333"/><path d="M-1400 3362.9l-5.32-16.37h10.64m-9.27 1l3.95 12.15 3.95-12.15" fill="#333"/><use xlink:href="#ak" transform="matrix(1,0,0,1,-1411.475,3229.2) translate(0.005000000000000782 14.4)"/><path d="M-1720 3548c0-4.42 3.58-8 8-8h144c4.42 0 8 3.58 8 8v104c0 4.42-3.58 8-8 8h-144c-4.42 0-8-3.58-8-8z" stroke="#000" stroke-opacity="0" stroke-width="2" fill="#3aa6dd"/><use xlink:href="#al" transform="matrix(1,0,0,1,-1715,3545) translate(5.150000000000006 47.8)"/><use xlink:href="#am" transform="matrix(1,0,0,1,-1715,3545) translate(87.00000000000001 47.8)"/><use xlink:href="#an" transform="matrix(1,0,0,1,-1715,3545) translate(128.9 47.8)"/><use xlink:href="#ao" transform="matrix(1,0,0,1,-1715,3545) translate(12.599999999999994 69.4)"/><use xlink:href="#u" transform="matrix(1,0,0,1,-1715,3545) translate(59.55 69.4)"/><path d="M-1399.5 3523.62h-1v-4.28h1m0-21.6h-1v-20.15h1" fill="#333"/><path d="M-1399.5 3477.1v.5h-1v-.52M-1400 3538.38l-4.64-14.26h9.28z" fill="#333"/><path d="M-1400 3540l-5.32-16.38h10.64m-9.27 1l3.95 12.14 3.95-12.14" fill="#333"/><use xlink:href="#ap" transform="matrix(1,0,0,1,-1414.675,3497.7431347905977) translate(0.005000000000000782 14.4)"/><path d="M-1640 3660.5v27.5c0 6.63 5.37 12 12 12h86c6.63 0 12 5.37 12 12v56c0 6.63 5.37 12 12 12h21" stroke="#333" fill="none"/><path d="M-1639.5 3660.5h-1v-.5h1" fill="#333"/><path d="M-1482.22 3780l-14.27 4.64v-9.28z" stroke="#333" fill="#333"/><path d="M-1400.6 3660.5v43.12" stroke="#333" fill="none"/><path d="M-1400.1 3660.5h-1v-.5h1" fill="#333"/><path d="M-1400.6 3718.38l-4.64-14.26h9.27z" stroke="#333" fill="#333"/><path d="M-1820 228c0-4.42 3.58-8 8-8h204c4.42 0 8 3.58 8 8v44c0 4.42-3.58 8-8 8h-204c-4.42 0-8-3.58-8-8z" stroke="#000" stroke-opacity="0" fill-opacity="0"/><g><use xlink:href="#aq" transform="matrix(1,0,0,1,-1815,225) translate(16.63703703703709 31.71111111111111)"/><use xlink:href="#ar" transform="matrix(1,0,0,1,-1815,225) translate(81.79074074074076 31.71111111111111)"/></g><path d="M-1820 1368c0-4.42 3.58-8 8-8h204c4.42 0 8 3.58 8 8v44c0 4.42-3.58 8-8 8h-204c-4.42 0-8-3.58-8-8z" stroke="#000" stroke-opacity="0" fill-opacity="0"/><g><use xlink:href="#as" transform="matrix(1,0,0,1,-1815,1365) translate(2.748765432098793 31.71111111111111)"/><use xlink:href="#at" transform="matrix(1,0,0,1,-1815,1365) translate(104.99999999999999 31.71111111111111)"/></g><path d="M-1820 2448c0-4.42 3.58-8 8-8h314c4.42 0 8 3.58 8 8v59.27c0 4.4-3.58 8-8 8h-314c-4.42 0-8-3.6-8-8z" stroke="#000" stroke-opacity="0" fill-opacity="0"/><g><use xlink:href="#au" transform="matrix(1,0,0,1,-1815,2445) translate(4.619135802469202 39.71111111111111)"/><use xlink:href="#av" transform="matrix(1,0,0,1,-1815,2445) translate(187.1240740740741 39.71111111111111)"/></g><path d="M-1820 2988c0-4.42 3.58-8 8-8h314c4.42 0 8 3.58 8 8v59.27c0 4.4-3.58 8-8 8h-314c-4.42 0-8-3.6-8-8z" stroke="#000" stroke-opacity="0" fill-opacity="0"/><g><use xlink:href="#aw" transform="matrix(1,0,0,1,-1815,2985) translate(10.165123456790184 39.71111111111111)"/><use xlink:href="#ax" transform="matrix(1,0,0,1,-1815,2985) translate(164.70709876543208 39.71111111111111)"/></g><path d="M-1820 4395.1c0-4.42 3.58-8 8-8h374c4.42 0 8 3.58 8 8v66.9c0 4.42-3.58 8-8 8h-374c-4.42 0-8-3.58-8-8z" stroke="#000" stroke-opacity="0" fill-opacity="0"/><g><use xlink:href="#ay" transform="matrix(1,0,0,1,-1815,4392.101342039021) translate(3.660802469135888 43.21111111111111)"/><use xlink:href="#az" transform="matrix(1,0,0,1,-1815,4392.101342039021) translate(86.80401234567907 43.21111111111111)"/><use xlink:href="#aA" transform="matrix(1,0,0,1,-1815,4392.101342039021) translate(204.15524691358027 43.21111111111111)"/><use xlink:href="#aB" transform="matrix(1,0,0,1,-1815,4392.101342039021) translate(237.6175925925926 43.21111111111111)"/></g><path d="M-1820 3699.93c0-4.4 3.58-8 8-8h273.53c4.42 0 8 3.6 8 8v59.27c0 4.42-3.58 8-8 8H-1812c-4.42 0-8-3.58-8-8z" stroke="#000" stroke-opacity="0" fill-opacity="0"/><g><use xlink:href="#aC" transform="matrix(1,0,0,1,-1815,3696.9340198670125) translate(5.032098765432153 39.71111111111111)"/><use xlink:href="#aD" transform="matrix(1,0,0,1,-1815,3696.9340198670125) translate(129.84012345679014 39.71111111111111)"/></g><path d="M-1399.5 623.62h-1v-36.85h1m27.06-46.27h-15.53l-3 .4-2.77 1.14-2.4 1.83-1.82 2.4-1.14 2.75-.4 3v13.15h-1v-13.2l.42-3.2 1.24-3 2-2.6 2.6-2 3-1.25 3.2-.42h15.6" fill="#333"/><path d="M-1371.96 540.5h-.5v-1h.54M-1400 638.38l-4.64-14.26h9.28z" fill="#333"/><path d="M-1400 640l-5.32-16.38h10.64m-9.27 1l3.95 12.14 3.95-12.14" fill="#333"/><g><use xlink:href="#ap" transform="matrix(1,0,0,1,-1414.675,565.1708736771066) translate(0.005000000000000782 14.4)"/></g><path d="M-1620 3240.5v43.12" stroke="#333" fill="none"/><path d="M-1619.5 3240.5h-1v-.5h1" fill="#333"/><path d="M-1620 3298.38l-4.64-14.26h9.28z" stroke="#333" fill="#333"/><path d="M-1562.93 3477.6h-65.04l-3 .38-2.77 1.14-2.4 1.84-1.82 2.4-1.14 2.74-.4 3.02v34.5h-1v-34.57l.42-3.2 1.24-3 2-2.6 2.6-2 3-1.24 3.2-.4h65.1m162.44 1h-139.48v-1h139.48M-1397 3477.6h-3.5v-.52l1.94.02 1.56-.4M-1640 3538.38l-4.64-14.26h9.28z" fill="#333"/><path d="M-1640 3540l-5.32-16.38h10.64m-9.27 1l3.95 12.14 3.95-12.14" fill="#333"/><g><use xlink:href="#ak" transform="matrix(1,0,0,1,-1562.9318652094018,3466.286269581196) translate(0.005000000000000782 14.4)"/></g><path d="M-1179.5 623.62h-1v-21.8h1m-9.26-61.9l3 1.24 2.6 2 2 2.6 1.24 3 .42 3.2v28.25h-1v-28.17l-.4-3-1.14-2.77-1.83-2.4-2.4-1.82-2.75-1.14-3-.4h-27.14v-1h27.2" fill="#333"/><path d="M-1219.15 540.5h-.53l.04-1h.5M-1180 638.38l-4.64-14.26h9.28z" fill="#333"/><path d="M-1180 640l-5.32-16.38h10.64m-9.27 1l3.95 12.14 3.95-12.14" fill="#333"/><g><use xlink:href="#ak" transform="matrix(1,0,0,1,-1191.475,580.2094279689358) translate(0.005000000000000782 14.4)"/></g><path d="M-1180 760.5V3768c0 6.63-5.37 12-12 12h-112.22" stroke="#333" fill="none"/><path d="M-1179.5 760.5h-1v-.5h1" fill="#333"/><path d="M-1318.98 3780l14.26-4.64v9.28z" stroke="#333" fill="#333"/><path d="M-1600 4200.5v43.12" stroke="#333" fill="none"/><path d="M-1599.5 4200.5h-1v-.5h1" fill="#333"/><path d="M-1600 4258.38l-4.64-14.26h9.28z" stroke="#333" fill="#333"/><path d="M-1219.5 4063.62h-1v-85.05h1m-11.97-19v1l-.56-.07h-91.93v-1h92" fill="#333"/><path d="M-1323.95 3960.5h-.53l.04-1h.5M-1220 4078.38l-4.64-14.26h9.28z" fill="#333"/><path d="M-1220 4080l-5.32-16.38h10.64m-9.27 1l3.95 12.14 3.95-12.14" fill="#333"/><g><use xlink:href="#ak" transform="matrix(1,0,0,1,-1231.475,3956.968926086332) translate(0.005000000000000782 14.4)"/></g><path d="M-1566.16 3960.5h-21.8l-3.02.4-2.76 1.14-2.4 1.83-1.82 2.4-1.14 2.75-.4 3v91.6h-1v-91.65l.42-3.2 1.24-3 2-2.6 2.6-2 3-1.25 3.2-.42h21.88m88.92 1h-59.57v-1h59.56" fill="#333"/><path d="M-1476.76 3960.5h-.5v-1h.54M-1600 4078.38l-4.64-14.26h9.28z" fill="#333"/><path d="M-1600 4080l-5.32-16.38h10.64m-9.27 1l3.95 12.14 3.95-12.14" fill="#333"/><g><use xlink:href="#ap" transform="matrix(1,0,0,1,-1566.161006190296,3949.2) translate(0.005000000000000782 14.4)"/></g><defs><path fill="#fafafa" d="M175 0L67-191c6 58 2 128 3 191H24v-248h59L193-55c-6-58-2-129-3-193h46V0h-61" id="aE"/><path fill="#fafafa" d="M185-48c-13 30-37 53-82 52C43 2 14-33 14-96s30-98 90-98c62 0 83 45 84 108H66c0 31 8 55 39 56 18 0 30-7 34-22zm-45-69c5-46-57-63-70-21-2 6-4 13-4 21h74" id="aF"/><path fill="#fafafa" d="M231 0h-52l-39-155L100 0H48L-1-190h46L77-45c9-52 24-97 36-145h53l37 145 32-145h46" id="aG"/><g id="a"><use transform="matrix(0.05,0,0,0.05,0,0)" xlink:href="#aE"/><use transform="matrix(0.05,0,0,0.05,12.950000000000001,0)" xlink:href="#aF"/><use transform="matrix(0.05,0,0,0.05,22.950000000000003,0)" xlink:href="#aG"/></g><path fill="#fafafa" d="M85 4C-2 5 27-109 22-190h50c7 57-23 150 33 157 60-5 35-97 40-157h50l1 190h-47c-2-12 1-28-3-38-12 25-28 42-61 42" id="aH"/><path fill="#fafafa" d="M137-138c1-29-70-34-71-4 15 46 118 7 119 86 1 83-164 76-172 9l43-7c4 19 20 25 44 25 33 8 57-30 24-41C81-84 22-81 20-136c-2-80 154-74 161-7" id="aI"/><path fill="#fafafa" d="M135-150c-39-12-60 13-60 57V0H25l-1-190h47c2 13-1 29 3 40 6-28 27-53 61-41v41" id="aJ"/><path fill="#fafafa" d="M110-251c83-7 118 89 53 130-17 10-36 21-38 46H78c2-56 65-53 71-103 2-21-15-35-38-34-25 1-41 14-44 38l-50-2c6-48 39-70 93-75zM77 0v-47h51V0H77" id="aK"/><g id="b"><use transform="matrix(0.05,0,0,0.05,0,0)" xlink:href="#aH"/><use transform="matrix(0.05,0,0,0.05,10.950000000000001,0)" xlink:href="#aI"/><use transform="matrix(0.05,0,0,0.05,20.950000000000003,0)" xlink:href="#aF"/><use transform="matrix(0.05,0,0,0.05,30.950000000000003,0)" xlink:href="#aJ"/><use transform="matrix(0.05,0,0,0.05,37.95,0)" xlink:href="#aK"/></g><path fill="#fff" d="M169-182c-1-43-94-46-97-3 18 66 151 10 154 114 3 95-165 93-204 36-6-8-10-19-12-30l50-8c3 46 112 56 116 5-17-69-150-10-154-114-4-87 153-88 188-35 5 8 8 18 10 28" id="aL"/><path fill="#fff" d="M135-194c53 0 70 44 70 98 0 56-19 98-73 100-31 1-45-17-59-34 3 33 2 69 2 105H25l-1-265h48c2 10 0 23 3 31 11-24 29-35 60-35zM114-30c33 0 39-31 40-66 0-38-9-64-40-64-56 0-55 130 0 130" id="aM"/><path fill="#fff" d="M25 0v-261h50V0H25" id="aN"/><path fill="#fff" d="M133-34C117-15 103 5 69 4 32 3 11-16 11-54c-1-60 55-63 116-61 1-26-3-47-28-47-18 1-26 9-28 27l-52-2c7-38 36-58 82-57s74 22 75 68l1 82c-1 14 12 18 25 15v27c-30 8-71 5-69-32zm-48 3c29 0 43-24 42-57-32 0-66-3-65 30 0 17 8 27 23 27" id="aO"/><path fill="#fff" d="M137-138c1-29-70-34-71-4 15 46 118 7 119 86 1 83-164 76-172 9l43-7c4 19 20 25 44 25 33 8 57-30 24-41C81-84 22-81 20-136c-2-80 154-74 161-7" id="aP"/><path fill="#fff" d="M114-157C55-157 80-60 75 0H25v-261h50l-1 109c12-26 28-41 61-42 86-1 58 113 63 194h-50c-7-57 23-157-34-157" id="aQ"/><g id="c"><use transform="matrix(0.05,0,0,0.05,0,0)" xlink:href="#aL"/><use transform="matrix(0.05,0,0,0.05,12,0)" xlink:href="#aM"/><use transform="matrix(0.05,0,0,0.05,22.950000000000003,0)" xlink:href="#aN"/><use transform="matrix(0.05,0,0,0.05,27.950000000000003,0)" xlink:href="#aO"/><use transform="matrix(0.05,0,0,0.05,37.95,0)" xlink:href="#aP"/><use transform="matrix(0.05,0,0,0.05,47.95,0)" xlink:href="#aQ"/></g><path fill="#fff" d="M190-63c-7 42-38 67-86 67-59 0-84-38-90-98-12-110 154-137 174-36l-49 2c-2-19-15-32-35-32-30 0-35 28-38 64-6 74 65 87 74 30" id="aR"/><path fill="#fff" d="M135-150c-39-12-60 13-60 57V0H25l-1-190h47c2 13-1 29 3 40 6-28 27-53 61-41v41" id="aS"/><path fill="#fff" d="M185-48c-13 30-37 53-82 52C43 2 14-33 14-96s30-98 90-98c62 0 83 45 84 108H66c0 31 8 55 39 56 18 0 30-7 34-22zm-45-69c5-46-57-63-70-21-2 6-4 13-4 21h74" id="aT"/><path fill="#fff" d="M135-194c87-1 58 113 63 194h-50c-7-57 23-157-34-157-59 0-34 97-39 157H25l-1-190h47c2 12-1 28 3 38 12-26 28-41 61-42" id="aU"/><g id="d"><use transform="matrix(0.05,0,0,0.05,0,0)" xlink:href="#aP"/><use transform="matrix(0.05,0,0,0.05,10,0)" xlink:href="#aR"/><use transform="matrix(0.05,0,0,0.05,20,0)" xlink:href="#aS"/><use transform="matrix(0.05,0,0,0.05,27,0)" xlink:href="#aT"/><use transform="matrix(0.05,0,0,0.05,37,0)" xlink:href="#aT"/><use transform="matrix(0.05,0,0,0.05,47,0)" xlink:href="#aU"/></g><path fill="#fff" d="M25-224v-37h50v37H25zM25 0v-190h50V0H25" id="aV"/><path fill="#fff" d="M195-6C206 82 75 100 31 46c-4-6-6-13-8-21l49-6c3 16 16 24 34 25 40 0 42-37 40-79-11 22-30 35-61 35-53 0-70-43-70-97 0-56 18-96 73-97 30 0 46 14 59 34l2-30h47zm-90-29c32 0 41-27 41-63 0-35-9-62-40-62-32 0-39 29-40 63 0 36 9 62 39 62" id="aW"/><g id="e"><use transform="matrix(0.05,0,0,0.05,0,0)" xlink:href="#aL"/><use transform="matrix(0.05,0,0,0.05,12,0)" xlink:href="#aV"/><use transform="matrix(0.05,0,0,0.05,17,0)" xlink:href="#aW"/><use transform="matrix(0.05,0,0,0.05,27.950000000000003,0)" xlink:href="#aU"/></g><g id="f"><use transform="matrix(0.05,0,0,0.05,0,0)" xlink:href="#aV"/><use transform="matrix(0.05,0,0,0.05,5,0)" xlink:href="#aU"/></g><path fill="#fff" d="M85 4C-2 5 27-109 22-190h50c7 57-23 150 33 157 60-5 35-97 40-157h50l1 190h-47c-2-12 1-28-3-38-12 25-28 42-61 42" id="aX"/><g id="g"><use transform="matrix(0.05,0,0,0.05,0,0)" xlink:href="#aX"/><use transform="matrix(0.05,0,0,0.05,10.950000000000001,0)" xlink:href="#aM"/></g><path fill="#fff" d="M231 0h-52l-39-155L100 0H48L-1-190h46L77-45c9-52 24-97 36-145h53l37 145 32-145h46" id="aY"/><path fill="#fff" d="M115-3C79 11 28 4 28-45v-112H4v-33h27l15-45h31v45h36v33H77v99c-1 23 16 31 38 25v30" id="aZ"/><g id="h"><use transform="matrix(0.05,0,0,0.05,0,0)" xlink:href="#aY"/><use transform="matrix(0.05,0,0,0.05,14,0)" xlink:href="#aV"/><use transform="matrix(0.05,0,0,0.05,19,0)" xlink:href="#aZ"/><use transform="matrix(0.05,0,0,0.05,24.95,0)" xlink:href="#aQ"/></g><path fill="#fff" d="M110-194c64 0 96 36 96 99 0 64-35 99-97 99-61 0-95-36-95-99 0-62 34-99 96-99zm-1 164c35 0 45-28 45-65 0-40-10-65-43-65-34 0-45 26-45 65 0 36 10 65 43 65" id="ba"/><g id="i"><use transform="matrix(0.05,0,0,0.05,0,0)" xlink:href="#aM"/><use transform="matrix(0.05,0,0,0.05,10.950000000000001,0)" xlink:href="#aQ"/><use transform="matrix(0.05,0,0,0.05,21.900000000000002,0)" xlink:href="#ba"/><use transform="matrix(0.05,0,0,0.05,32.85,0)" xlink:href="#aU"/><use transform="matrix(0.05,0,0,0.05,43.800000000000004,0)" xlink:href="#aT"/></g><path fill="#fff" d="M220-157c-53 9-28 100-34 157h-49v-107c1-27-5-49-29-50C55-147 81-57 75 0H25l-1-190h47c2 12-1 28 3 38 10-53 101-56 108 0 13-22 24-43 59-42 82 1 51 116 57 194h-49v-107c-1-25-5-48-29-50" id="bb"/><path fill="#fff" d="M135-194c52 0 70 43 70 98 0 56-19 99-73 100-30 1-46-15-58-35L72 0H24l1-261h50v104c11-23 29-37 60-37zM114-30c31 0 40-27 40-66 0-37-7-63-39-63s-41 28-41 65c0 36 8 64 40 64" id="bc"/><g id="j"><use transform="matrix(0.05,0,0,0.05,0,0)" xlink:href="#aU"/><use transform="matrix(0.05,0,0,0.05,10.950000000000001,0)" xlink:href="#aX"/><use transform="matrix(0.05,0,0,0.05,21.900000000000002,0)" xlink:href="#bb"/><use transform="matrix(0.05,0,0,0.05,37.900000000000006,0)" xlink:href="#bc"/><use transform="matrix(0.05,0,0,0.05,48.85000000000001,0)" xlink:href="#aT"/><use transform="matrix(0.05,0,0,0.05,58.85,0)" xlink:href="#aS"/></g><path fill="#fff" d="M24 0v-248h195v40H76v63h132v40H76v65h150V0H24" id="bd"/><path fill="#fff" d="M88-194c31-1 46 15 58 34l-1-101h50l1 261h-48c-2-10 0-23-3-31C134-8 116 4 84 4 32 4 16-41 15-95c0-56 19-97 73-99zm17 164c33 0 40-30 41-66 1-37-9-64-41-64s-38 30-39 65c0 43 13 65 39 65" id="be"/><g id="k"><use transform="matrix(0.05,0,0,0.05,0,0)" xlink:href="#bd"/><use transform="matrix(0.05,0,0,0.05,12,0)" xlink:href="#aU"/><use transform="matrix(0.05,0,0,0.05,22.950000000000003,0)" xlink:href="#be"/></g><g id="l"><use transform="matrix(0.05,0,0,0.05,0,0)" xlink:href="#aX"/><use transform="matrix(0.05,0,0,0.05,10.950000000000001,0)" xlink:href="#aP"/><use transform="matrix(0.05,0,0,0.05,20.950000000000003,0)" xlink:href="#aT"/><use transform="matrix(0.05,0,0,0.05,30.950000000000003,0)" xlink:href="#aS"/></g><g id="m"><use transform="matrix(0.05,0,0,0.05,0,0)" xlink:href="#aN"/><use transform="matrix(0.05,0,0,0.05,5,0)" xlink:href="#aV"/><use transform="matrix(0.05,0,0,0.05,10,0)" xlink:href="#aR"/><use transform="matrix(0.05,0,0,0.05,20,0)" xlink:href="#aT"/><use transform="matrix(0.05,0,0,0.05,30,0)" xlink:href="#aU"/><use transform="matrix(0.05,0,0,0.05,40.95,0)" xlink:href="#aP"/><use transform="matrix(0.05,0,0,0.05,50.95,0)" xlink:href="#aT"/></g><g id="n"><use transform="matrix(0.05,0,0,0.05,0,0)" xlink:href="#aO"/><use transform="matrix(0.05,0,0,0.05,10,0)" xlink:href="#aW"/><use transform="matrix(0.05,0,0,0.05,20.950000000000003,0)" xlink:href="#aS"/><use transform="matrix(0.05,0,0,0.05,27.950000000000003,0)" xlink:href="#aT"/><use transform="matrix(0.05,0,0,0.05,37.95,0)" xlink:href="#aT"/><use transform="matrix(0.05,0,0,0.05,47.95,0)" xlink:href="#bb"/><use transform="matrix(0.05,0,0,0.05,63.95,0)" xlink:href="#aT"/><use transform="matrix(0.05,0,0,0.05,73.95,0)" xlink:href="#aU"/><use transform="matrix(0.05,0,0,0.05,84.9,0)" xlink:href="#aZ"/></g><g id="o"><use transform="matrix(0.05,0,0,0.05,0,0)" xlink:href="#aL"/><use transform="matrix(0.05,0,0,0.05,12,0)" xlink:href="#ba"/><use transform="matrix(0.05,0,0,0.05,22.950000000000003,0)" xlink:href="#aR"/><use transform="matrix(0.05,0,0,0.05,32.95,0)" xlink:href="#aV"/><use transform="matrix(0.05,0,0,0.05,37.95,0)" xlink:href="#aO"/><use transform="matrix(0.05,0,0,0.05,47.95,0)" xlink:href="#aN"/></g><path fill="#fff" d="M121-226c-27-7-43 5-38 36h38v33H83V0H34v-157H6v-33h28c-9-59 32-81 87-68v32" id="bf"/><g id="p"><use transform="matrix(0.05,0,0,0.05,0,0)" xlink:href="#aM"/><use transform="matrix(0.05,0,0,0.05,10.950000000000001,0)" xlink:href="#aS"/><use transform="matrix(0.05,0,0,0.05,17.950000000000003,0)" xlink:href="#aT"/><use transform="matrix(0.05,0,0,0.05,27.950000000000003,0)" xlink:href="#bf"/><use transform="matrix(0.05,0,0,0.05,33.900000000000006,0)" xlink:href="#aT"/><use transform="matrix(0.05,0,0,0.05,43.900000000000006,0)" xlink:href="#aS"/><use transform="matrix(0.05,0,0,0.05,50.900000000000006,0)" xlink:href="#aT"/><use transform="matrix(0.05,0,0,0.05,60.900000000000006,0)" xlink:href="#aU"/><use transform="matrix(0.05,0,0,0.05,71.85000000000001,0)" xlink:href="#aR"/><use transform="matrix(0.05,0,0,0.05,81.85000000000001,0)" xlink:href="#aT"/></g><path fill="#fff" d="M199 0l-22-63H83L61 0H9l90-248h61L250 0h-51zm-33-102l-36-108c-10 38-24 72-36 108h72" id="bg"/><path fill="#fff" d="M128 0H69L1-190h53L99-40l48-150h52" id="bh"/><path fill="#fff" d="M123 10C108 53 80 86 19 72V37c35 8 53-11 59-39L3-190h52l48 148c12-52 28-100 44-148h51" id="bi"/><g id="q"><use transform="matrix(0.05,0,0,0.05,0,0)" xlink:href="#bg"/><use transform="matrix(0.05,0,0,0.05,12.950000000000001,0)" xlink:href="#aR"/><use transform="matrix(0.05,0,0,0.05,22.950000000000003,0)" xlink:href="#aZ"/><use transform="matrix(0.05,0,0,0.05,28.900000000000002,0)" xlink:href="#aV"/><use transform="matrix(0.05,0,0,0.05,33.900000000000006,0)" xlink:href="#bh"/><use transform="matrix(0.05,0,0,0.05,43.900000000000006,0)" xlink:href="#aV"/><use transform="matrix(0.05,0,0,0.05,48.900000000000006,0)" xlink:href="#aZ"/><use transform="matrix(0.05,0,0,0.05,54.85,0)" xlink:href="#bi"/></g><g id="r"><use transform="matrix(0.05,0,0,0.05,0,0)" xlink:href="#aM"/><use transform="matrix(0.05,0,0,0.05,10.950000000000001,0)" xlink:href="#aS"/><use transform="matrix(0.05,0,0,0.05,17.950000000000003,0)" xlink:href="#aT"/><use transform="matrix(0.05,0,0,0.05,27.950000000000003,0)" xlink:href="#bf"/><use transform="matrix(0.05,0,0,0.05,33.900000000000006,0)" xlink:href="#aT"/><use transform="matrix(0.05,0,0,0.05,43.900000000000006,0)" xlink:href="#aS"/><use transform="matrix(0.05,0,0,0.05,50.900000000000006,0)" xlink:href="#aT"/><use transform="matrix(0.05,0,0,0.05,60.900000000000006,0)" xlink:href="#aU"/><use transform="matrix(0.05,0,0,0.05,71.85000000000001,0)" xlink:href="#aR"/><use transform="matrix(0.05,0,0,0.05,81.85000000000001,0)" xlink:href="#aT"/></g><g id="s"><use transform="matrix(0.05,0,0,0.05,0,0)" xlink:href="#aL"/><use transform="matrix(0.05,0,0,0.05,12,0)" xlink:href="#bi"/><use transform="matrix(0.05,0,0,0.05,22,0)" xlink:href="#aU"/><use transform="matrix(0.05,0,0,0.05,32.95,0)" xlink:href="#aR"/></g><path fill="#fff" d="M147 0L96-86 75-71V0H25v-261h50v150l67-79h53l-66 74L201 0h-54" id="bj"/><g id="t"><use transform="matrix(0.05,0,0,0.05,0,0)" xlink:href="#aY"/><use transform="matrix(0.05,0,0,0.05,14,0)" xlink:href="#ba"/><use transform="matrix(0.05,0,0,0.05,24.950000000000003,0)" xlink:href="#aS"/><use transform="matrix(0.05,0,0,0.05,31.950000000000003,0)" xlink:href="#bj"/></g><g id="u"><use transform="matrix(0.05,0,0,0.05,0,0)" xlink:href="#aP"/><use transform="matrix(0.05,0,0,0.05,10,0)" xlink:href="#aR"/><use transform="matrix(0.05,0,0,0.05,20,0)" xlink:href="#aQ"/><use transform="matrix(0.05,0,0,0.05,30.950000000000003,0)" xlink:href="#aT"/><use transform="matrix(0.05,0,0,0.05,40.95,0)" xlink:href="#be"/><use transform="matrix(0.05,0,0,0.05,51.900000000000006,0)" xlink:href="#aX"/><use transform="matrix(0.05,0,0,0.05,62.85,0)" xlink:href="#aN"/><use transform="matrix(0.05,0,0,0.05,67.85000000000001,0)" xlink:href="#aT"/></g><g id="v"><use transform="matrix(0.05,0,0,0.05,0,0)" xlink:href="#aM"/><use transform="matrix(0.05,0,0,0.05,10.950000000000001,0)" xlink:href="#aQ"/><use transform="matrix(0.05,0,0,0.05,21.900000000000002,0)" xlink:href="#ba"/><use transform="matrix(0.05,0,0,0.05,32.85,0)" xlink:href="#aU"/><use transform="matrix(0.05,0,0,0.05,43.800000000000004,0)" xlink:href="#aT"/></g><g id="w"><use transform="matrix(0.05,0,0,0.05,0,0)" xlink:href="#aR"/><use transform="matrix(0.05,0,0,0.05,10,0)" xlink:href="#ba"/><use transform="matrix(0.05,0,0,0.05,20.950000000000003,0)" xlink:href="#aU"/><use transform="matrix(0.05,0,0,0.05,31.900000000000006,0)" xlink:href="#aZ"/><use transform="matrix(0.05,0,0,0.05,37.85000000000001,0)" xlink:href="#aO"/><use transform="matrix(0.05,0,0,0.05,47.85000000000001,0)" xlink:href="#aR"/><use transform="matrix(0.05,0,0,0.05,57.85,0)" xlink:href="#aZ"/><use transform="matrix(0.05,0,0,0.05,63.80000000000001,0)" xlink:href="#aP"/></g><path fill="#fafafa" d="M275 0h-61l-44-196L126 0H64L0-248h53L97-49l45-199h58l43 199 44-199h52" id="bk"/><path fill="#fafafa" d="M133-34C117-15 103 5 69 4 32 3 11-16 11-54c-1-60 55-63 116-61 1-26-3-47-28-47-18 1-26 9-28 27l-52-2c7-38 36-58 82-57s74 22 75 68l1 82c-1 14 12 18 25 15v27c-30 8-71 5-69-32zm-48 3c29 0 43-24 42-57-32 0-66-3-65 30 0 17 8 27 23 27" id="bl"/><path fill="#fafafa" d="M135-194c87-1 58 113 63 194h-50c-7-57 23-157-34-157-59 0-34 97-39 157H25l-1-190h47c2 12-1 28 3 38 12-26 28-41 61-42" id="bm"/><path fill="#fafafa" d="M115-3C79 11 28 4 28-45v-112H4v-33h27l15-45h31v45h36v33H77v99c-1 23 16 31 38 25v30" id="bn"/><g id="x"><use transform="matrix(0.05,0,0,0.05,0,0)" xlink:href="#bk"/><use transform="matrix(0.05,0,0,0.05,16.3,0)" xlink:href="#bl"/><use transform="matrix(0.05,0,0,0.05,26.3,0)" xlink:href="#bm"/><use transform="matrix(0.05,0,0,0.05,37.25,0)" xlink:href="#bn"/></g><path fill="#fafafa" d="M110-194c64 0 96 36 96 99 0 64-35 99-97 99-61 0-95-36-95-99 0-62 34-99 96-99zm-1 164c35 0 45-28 45-65 0-40-10-65-43-65-34 0-45 26-45 65 0 36 10 65 43 65" id="bo"/><g id="y"><use transform="matrix(0.05,0,0,0.05,0,0)" xlink:href="#bn"/><use transform="matrix(0.05,0,0,0.05,5.95,0)" xlink:href="#bo"/></g><path fill="#fafafa" d="M123 10C108 53 80 86 19 72V37c35 8 53-11 59-39L3-190h52l48 148c12-52 28-100 44-148h51" id="bp"/><path fill="#fafafa" d="M190-63c-7 42-38 67-86 67-59 0-84-38-90-98-12-110 154-137 174-36l-49 2c-2-19-15-32-35-32-30 0-35 28-38 64-6 74 65 87 74 30" id="bq"/><g id="z"><use transform="matrix(0.05,0,0,0.05,0,0)" xlink:href="#aI"/><use transform="matrix(0.05,0,0,0.05,10,0)" xlink:href="#bp"/><use transform="matrix(0.05,0,0,0.05,20,0)" xlink:href="#bm"/><use transform="matrix(0.05,0,0,0.05,30.950000000000003,0)" xlink:href="#bq"/></g><g id="A"><use transform="matrix(0.05,0,0,0.05,0,0)" xlink:href="#bq"/><use transform="matrix(0.05,0,0,0.05,10,0)" xlink:href="#bo"/><use transform="matrix(0.05,0,0,0.05,20.950000000000003,0)" xlink:href="#bm"/><use transform="matrix(0.05,0,0,0.05,31.900000000000006,0)" xlink:href="#bn"/><use transform="matrix(0.05,0,0,0.05,37.85000000000001,0)" xlink:href="#bl"/><use transform="matrix(0.05,0,0,0.05,47.85000000000001,0)" xlink:href="#bq"/><use transform="matrix(0.05,0,0,0.05,57.85,0)" xlink:href="#bn"/><use transform="matrix(0.05,0,0,0.05,63.80000000000001,0)" xlink:href="#aI"/><use transform="matrix(0.05,0,0,0.05,73.80000000000001,0)" xlink:href="#aK"/></g><path fill="#333" d="M146-102V0H94v-102L6-248h54l60 105 60-105h54" id="br"/><path fill="#333" d="M24 0v-248h195v40H76v63h132v40H76v65h150V0H24" id="bs"/><path fill="#333" d="M169-182c-1-43-94-46-97-3 18 66 151 10 154 114 3 95-165 93-204 36-6-8-10-19-12-30l50-8c3 46 112 56 116 5-17-69-150-10-154-114-4-87 153-88 188-35 5 8 8 18 10 28" id="bt"/><g id="B"><use transform="matrix(0.04320987654320988,0,0,0.04320987654320988,0,0)" xlink:href="#br"/><use transform="matrix(0.04320987654320988,0,0,0.04320987654320988,10.370370370370372,0)" xlink:href="#bs"/><use transform="matrix(0.04320987654320988,0,0,0.04320987654320988,20.740740740740744,0)" xlink:href="#bt"/></g><g id="C"><use transform="matrix(0.05,0,0,0.05,0,0)" xlink:href="#bg"/><use transform="matrix(0.05,0,0,0.05,12.950000000000001,0)" xlink:href="#be"/><use transform="matrix(0.05,0,0,0.05,23.900000000000002,0)" xlink:href="#be"/></g><g id="D"><use transform="matrix(0.05,0,0,0.05,0,0)" xlink:href="#bf"/><use transform="matrix(0.05,0,0,0.05,5.95,0)" xlink:href="#aS"/><use transform="matrix(0.05,0,0,0.05,12.949999999999998,0)" xlink:href="#aV"/><use transform="matrix(0.05,0,0,0.05,17.95,0)" xlink:href="#aT"/><use transform="matrix(0.05,0,0,0.05,27.950000000000003,0)" xlink:href="#aU"/><use transform="matrix(0.05,0,0,0.05,38.9,0)" xlink:href="#be"/><use transform="matrix(0.05,0,0,0.05,49.85,0)" xlink:href="#aP"/></g><path fill="#fff" d="M240-174c0 40-23 61-54 70L253 0h-59l-57-94H76V0H24v-248c93 4 217-23 216 74zM76-134c48-2 112 12 112-38 0-48-66-32-112-35v73" id="bu"/><g id="E"><use transform="matrix(0.05,0,0,0.05,0,0)" xlink:href="#bu"/><use transform="matrix(0.05,0,0,0.05,12.950000000000001,0)" xlink:href="#aT"/><use transform="matrix(0.05,0,0,0.05,22.950000000000003,0)" xlink:href="#bh"/><use transform="matrix(0.05,0,0,0.05,32.95,0)" xlink:href="#aV"/><use transform="matrix(0.05,0,0,0.05,37.95,0)" xlink:href="#aT"/><use transform="matrix(0.05,0,0,0.05,47.95,0)" xlink:href="#aY"/></g><path fill="#fff" d="M24 0v-248h52V0H24" id="bv"/><g id="F"><use transform="matrix(0.05,0,0,0.05,0,0)" xlink:href="#bg"/><use transform="matrix(0.05,0,0,0.05,12.950000000000001,0)" xlink:href="#bv"/></g><g id="G"><use transform="matrix(0.05,0,0,0.05,0,0)" xlink:href="#aW"/><use transform="matrix(0.05,0,0,0.05,10.950000000000001,0)" xlink:href="#aT"/><use transform="matrix(0.05,0,0,0.05,20.950000000000003,0)" xlink:href="#aU"/><use transform="matrix(0.05,0,0,0.05,31.900000000000006,0)" xlink:href="#aT"/><use transform="matrix(0.05,0,0,0.05,41.900000000000006,0)" xlink:href="#aS"/><use transform="matrix(0.05,0,0,0.05,48.900000000000006,0)" xlink:href="#aO"/><use transform="matrix(0.05,0,0,0.05,58.900000000000006,0)" xlink:href="#aZ"/><use transform="matrix(0.05,0,0,0.05,64.85000000000001,0)" xlink:href="#aT"/><use transform="matrix(0.05,0,0,0.05,74.85000000000001,0)" xlink:href="#be"/></g><path fill="#fafafa" d="M169-182c-1-43-94-46-97-3 18 66 151 10 154 114 3 95-165 93-204 36-6-8-10-19-12-30l50-8c3 46 112 56 116 5-17-69-150-10-154-114-4-87 153-88 188-35 5 8 8 18 10 28" id="bw"/><path fill="#fafafa" d="M25-224v-37h50v37H25zM25 0v-190h50V0H25" id="bx"/><path fill="#fafafa" d="M121-226c-27-7-43 5-38 36h38v33H83V0H34v-157H6v-33h28c-9-59 32-81 87-68v32" id="by"/><path fill="#fafafa" d="M25 0v-261h50V0H25" id="bz"/><path fill="#fafafa" d="M88-194c31-1 46 15 58 34l-1-101h50l1 261h-48c-2-10 0-23-3-31C134-8 116 4 84 4 32 4 16-41 15-95c0-56 19-97 73-99zm17 164c33 0 40-30 41-66 1-37-9-64-41-64s-38 30-39 65c0 43 13 65 39 65" id="bA"/><g id="H"><use transform="matrix(0.05,0,0,0.05,0,0)" xlink:href="#bw"/><use transform="matrix(0.05,0,0,0.05,12,0)" xlink:href="#bl"/><use transform="matrix(0.05,0,0,0.05,22,0)" xlink:href="#bn"/><use transform="matrix(0.05,0,0,0.05,27.950000000000003,0)" xlink:href="#bx"/><use transform="matrix(0.05,0,0,0.05,32.95,0)" xlink:href="#aI"/><use transform="matrix(0.05,0,0,0.05,42.95,0)" xlink:href="#by"/><use transform="matrix(0.05,0,0,0.05,48.900000000000006,0)" xlink:href="#bx"/><use transform="matrix(0.05,0,0,0.05,53.900000000000006,0)" xlink:href="#aF"/><use transform="matrix(0.05,0,0,0.05,63.900000000000006,0)" xlink:href="#bz"/><use transform="matrix(0.05,0,0,0.05,68.9,0)" xlink:href="#bA"/><use transform="matrix(0.05,0,0,0.05,79.85000000000001,0)" xlink:href="#aK"/></g><g id="I"><use transform="matrix(0.05,0,0,0.05,0,0)" xlink:href="#bd"/><use transform="matrix(0.05,0,0,0.05,12,0)" xlink:href="#be"/><use transform="matrix(0.05,0,0,0.05,22.950000000000003,0)" xlink:href="#aV"/><use transform="matrix(0.05,0,0,0.05,27.950000000000003,0)" xlink:href="#aZ"/></g><path fill="#fff" d="M275 0h-61l-44-196L126 0H64L0-248h53L97-49l45-199h58l43 199 44-199h52" id="bB"/><g id="J"><use transform="matrix(0.05,0,0,0.05,0,0)" xlink:href="#bB"/><use transform="matrix(0.05,0,0,0.05,16.3,0)" xlink:href="#aO"/><use transform="matrix(0.05,0,0,0.05,26.3,0)" xlink:href="#aV"/><use transform="matrix(0.05,0,0,0.05,31.3,0)" xlink:href="#aZ"/></g><g id="K"><use transform="matrix(0.05,0,0,0.05,0,0)" xlink:href="#bf"/><use transform="matrix(0.05,0,0,0.05,5.95,0)" xlink:href="#ba"/><use transform="matrix(0.05,0,0,0.05,16.900000000000002,0)" xlink:href="#aS"/></g><g id="L"><use transform="matrix(0.05,0,0,0.05,0,0)" xlink:href="#aU"/><use transform="matrix(0.05,0,0,0.05,10.950000000000001,0)" xlink:href="#ba"/><use transform="matrix(0.05,0,0,0.05,21.900000000000002,0)" xlink:href="#aZ"/><use transform="matrix(0.05,0,0,0.05,27.85,0)" xlink:href="#aV"/><use transform="matrix(0.05,0,0,0.05,32.85,0)" xlink:href="#bf"/><use transform="matrix(0.05,0,0,0.05,38.800000000000004,0)" xlink:href="#aV"/><use transform="matrix(0.05,0,0,0.05,43.800000000000004,0)" xlink:href="#aR"/><use transform="matrix(0.05,0,0,0.05,53.800000000000004,0)" xlink:href="#aO"/><use transform="matrix(0.05,0,0,0.05,63.800000000000004,0)" xlink:href="#aZ"/><use transform="matrix(0.05,0,0,0.05,69.75,0)" xlink:href="#aV"/><use transform="matrix(0.05,0,0,0.05,74.75,0)" xlink:href="#ba"/><use transform="matrix(0.05,0,0,0.05,85.7,0)" xlink:href="#aU"/></g><path fill="#fff" d="M23 0v-37h61v-169l-59 37v-38l62-41h46v211h57V0H23" id="bC"/><path fill="#fff" d="M101-251c68 0 84 54 84 127C185-50 166 4 99 4S15-52 14-124c-1-75 17-127 87-127zm-1 216c37-5 36-46 36-89s4-89-36-89c-39 0-36 45-36 89 0 43-3 85 36 89" id="bD"/><g id="M"><use transform="matrix(0.05,0,0,0.05,0,0)" xlink:href="#bC"/><use transform="matrix(0.05,0,0,0.05,10,0)" xlink:href="#bD"/></g><g id="N"><use transform="matrix(0.05,0,0,0.05,0,0)" xlink:href="#bb"/><use transform="matrix(0.05,0,0,0.05,16,0)" xlink:href="#aV"/><use transform="matrix(0.05,0,0,0.05,21,0)" xlink:href="#aU"/><use transform="matrix(0.05,0,0,0.05,31.950000000000003,0)" xlink:href="#aX"/><use transform="matrix(0.05,0,0,0.05,42.900000000000006,0)" xlink:href="#aZ"/><use transform="matrix(0.05,0,0,0.05,48.85000000000001,0)" xlink:href="#aT"/><use transform="matrix(0.05,0,0,0.05,58.85,0)" xlink:href="#aP"/></g><g id="O"><use transform="matrix(0.05,0,0,0.05,0,0)" xlink:href="#bc"/><use transform="matrix(0.05,0,0,0.05,10.950000000000001,0)" xlink:href="#aT"/><use transform="matrix(0.05,0,0,0.05,20.950000000000003,0)" xlink:href="#bf"/><use transform="matrix(0.05,0,0,0.05,26.900000000000002,0)" xlink:href="#ba"/><use transform="matrix(0.05,0,0,0.05,37.85,0)" xlink:href="#aS"/><use transform="matrix(0.05,0,0,0.05,44.85,0)" xlink:href="#aT"/></g><g id="P"><use transform="matrix(0.05,0,0,0.05,0,0)" xlink:href="#aZ"/><use transform="matrix(0.05,0,0,0.05,5.95,0)" xlink:href="#aQ"/><use transform="matrix(0.05,0,0,0.05,16.900000000000002,0)" xlink:href="#aT"/></g><g id="Q"><use transform="matrix(0.05,0,0,0.05,0,0)" xlink:href="#bc"/><use transform="matrix(0.05,0,0,0.05,10.950000000000001,0)" xlink:href="#aS"/><use transform="matrix(0.05,0,0,0.05,17.950000000000003,0)" xlink:href="#aT"/><use transform="matrix(0.05,0,0,0.05,27.950000000000003,0)" xlink:href="#aO"/><use transform="matrix(0.05,0,0,0.05,37.95,0)" xlink:href="#bj"/></g><path fill="#fff" d="M136-208V0H84v-208H4v-40h212v40h-80" id="bE"/><g id="R"><use transform="matrix(0.05,0,0,0.05,0,0)" xlink:href="#bE"/><use transform="matrix(0.05,0,0,0.05,9.600000000000001,0)" xlink:href="#ba"/><use transform="matrix(0.05,0,0,0.05,20.550000000000004,0)" xlink:href="#aM"/><use transform="matrix(0.05,0,0,0.05,31.500000000000007,0)" xlink:href="#aV"/><use transform="matrix(0.05,0,0,0.05,36.50000000000001,0)" xlink:href="#aR"/></g><g id="S"><use transform="matrix(0.05,0,0,0.05,0,0)" xlink:href="#aP"/><use transform="matrix(0.05,0,0,0.05,10,0)" xlink:href="#aX"/><use transform="matrix(0.05,0,0,0.05,20.950000000000003,0)" xlink:href="#aW"/><use transform="matrix(0.05,0,0,0.05,31.900000000000006,0)" xlink:href="#aW"/><use transform="matrix(0.05,0,0,0.05,42.85000000000001,0)" xlink:href="#aT"/><use transform="matrix(0.05,0,0,0.05,52.85,0)" xlink:href="#aP"/><use transform="matrix(0.05,0,0,0.05,62.85,0)" xlink:href="#aZ"/><use transform="matrix(0.05,0,0,0.05,68.80000000000001,0)" xlink:href="#aV"/><use transform="matrix(0.05,0,0,0.05,73.80000000000001,0)" xlink:href="#ba"/><use transform="matrix(0.05,0,0,0.05,84.75000000000001,0)" xlink:href="#aU"/></g><path fill="#fff" d="M24-248c120-7 223 5 221 122C244-46 201 0 124 0H24v-248zM76-40c74 7 117-18 117-86 0-67-45-88-117-82v168" id="bF"/><g id="T"><use transform="matrix(0.05,0,0,0.05,0,0)" xlink:href="#bF"/><use transform="matrix(0.05,0,0,0.05,12.950000000000001,0)" xlink:href="#aT"/><use transform="matrix(0.05,0,0,0.05,22.950000000000003,0)" xlink:href="#bf"/><use transform="matrix(0.05,0,0,0.05,28.900000000000002,0)" xlink:href="#aV"/><use transform="matrix(0.05,0,0,0.05,33.900000000000006,0)" xlink:href="#aU"/><use transform="matrix(0.05,0,0,0.05,44.85000000000001,0)" xlink:href="#aT"/></g><g id="U"><use transform="matrix(0.05,0,0,0.05,0,0)" xlink:href="#aU"/><use transform="matrix(0.05,0,0,0.05,10.950000000000001,0)" xlink:href="#aT"/><use transform="matrix(0.05,0,0,0.05,20.950000000000003,0)" xlink:href="#aV"/><use transform="matrix(0.05,0,0,0.05,25.950000000000003,0)" xlink:href="#aW"/><use transform="matrix(0.05,0,0,0.05,36.900000000000006,0)" xlink:href="#aQ"/><use transform="matrix(0.05,0,0,0.05,47.85000000000001,0)" xlink:href="#bc"/><use transform="matrix(0.05,0,0,0.05,58.80000000000001,0)" xlink:href="#ba"/><use transform="matrix(0.05,0,0,0.05,69.75000000000001,0)" xlink:href="#aS"/><use transform="matrix(0.05,0,0,0.05,76.75000000000001,0)" xlink:href="#aQ"/><use transform="matrix(0.05,0,0,0.05,87.70000000000002,0)" xlink:href="#ba"/><use transform="matrix(0.05,0,0,0.05,98.65000000000002,0)" xlink:href="#ba"/><use transform="matrix(0.05,0,0,0.05,109.60000000000002,0)" xlink:href="#be"/></g><path fill="#fff" d="M147 0H94L2-248h55l64 206c17-72 42-137 63-206h54" id="bG"/><g id="V"><use transform="matrix(0.05,0,0,0.05,0,0)" xlink:href="#bG"/><use transform="matrix(0.05,0,0,0.05,11,0)" xlink:href="#aT"/><use transform="matrix(0.05,0,0,0.05,21,0)" xlink:href="#aS"/><use transform="matrix(0.05,0,0,0.05,28,0)" xlink:href="#aV"/><use transform="matrix(0.05,0,0,0.05,33,0)" xlink:href="#bf"/><use transform="matrix(0.05,0,0,0.05,38.95,0)" xlink:href="#bi"/></g><g id="W"><use transform="matrix(0.05,0,0,0.05,0,0)" xlink:href="#aU"/><use transform="matrix(0.05,0,0,0.05,10.950000000000001,0)" xlink:href="#aX"/><use transform="matrix(0.05,0,0,0.05,21.900000000000002,0)" xlink:href="#bb"/><use transform="matrix(0.05,0,0,0.05,37.900000000000006,0)" xlink:href="#bc"/><use transform="matrix(0.05,0,0,0.05,48.85000000000001,0)" xlink:href="#aT"/><use transform="matrix(0.05,0,0,0.05,58.85,0)" xlink:href="#aS"/></g><g id="X"><use transform="matrix(0.05,0,0,0.05,0,0)" xlink:href="#bd"/><use transform="matrix(0.05,0,0,0.05,12,0)" xlink:href="#aU"/><use transform="matrix(0.05,0,0,0.05,22.950000000000003,0)" xlink:href="#aZ"/><use transform="matrix(0.05,0,0,0.05,28.900000000000002,0)" xlink:href="#aT"/><use transform="matrix(0.05,0,0,0.05,38.900000000000006,0)" xlink:href="#aS"/></g><g id="Y"><use transform="matrix(0.05,0,0,0.05,0,0)" xlink:href="#aT"/><use transform="matrix(0.05,0,0,0.05,10,0)" xlink:href="#bb"/><use transform="matrix(0.05,0,0,0.05,26,0)" xlink:href="#aO"/><use transform="matrix(0.05,0,0,0.05,36,0)" xlink:href="#aV"/><use transform="matrix(0.05,0,0,0.05,41,0)" xlink:href="#aN"/></g><path fill="#fff" d="M186 0v-106H76V0H24v-248h52v99h110v-99h50V0h-50" id="bH"/><g id="Z"><use transform="matrix(0.05,0,0,0.05,0,0)" xlink:href="#bH"/><use transform="matrix(0.05,0,0,0.05,12.950000000000001,0)" xlink:href="#ba"/><use transform="matrix(0.05,0,0,0.05,23.900000000000002,0)" xlink:href="#aX"/><use transform="matrix(0.05,0,0,0.05,34.85,0)" xlink:href="#aP"/><use transform="matrix(0.05,0,0,0.05,44.85,0)" xlink:href="#aT"/></g><g id="aa"><use transform="matrix(0.05,0,0,0.05,0,0)" xlink:href="#aS"/><use transform="matrix(0.05,0,0,0.05,7,0)" xlink:href="#aX"/><use transform="matrix(0.05,0,0,0.05,17.950000000000003,0)" xlink:href="#aN"/><use transform="matrix(0.05,0,0,0.05,22.950000000000003,0)" xlink:href="#aT"/></g><path fill="#fff" d="M24-248c93 1 206-16 204 79-1 75-69 88-152 82V0H24v-248zm52 121c47 0 100 7 100-41 0-47-54-39-100-39v80" id="bI"/><g id="ab"><use transform="matrix(0.05,0,0,0.05,0,0)" xlink:href="#bI"/><use transform="matrix(0.05,0,0,0.05,12,0)" xlink:href="#aS"/><use transform="matrix(0.05,0,0,0.05,19,0)" xlink:href="#ba"/><use transform="matrix(0.05,0,0,0.05,29.950000000000003,0)" xlink:href="#bf"/><use transform="matrix(0.05,0,0,0.05,35.900000000000006,0)" xlink:href="#aV"/><use transform="matrix(0.05,0,0,0.05,40.900000000000006,0)" xlink:href="#aN"/><use transform="matrix(0.05,0,0,0.05,45.900000000000006,0)" xlink:href="#aT"/></g><g id="ac"><use transform="matrix(0.05,0,0,0.05,0,0)" xlink:href="#aM"/><use transform="matrix(0.05,0,0,0.05,10.950000000000001,0)" xlink:href="#aQ"/><use transform="matrix(0.05,0,0,0.05,21.900000000000002,0)" xlink:href="#ba"/><use transform="matrix(0.05,0,0,0.05,32.85,0)" xlink:href="#aZ"/><use transform="matrix(0.05,0,0,0.05,38.800000000000004,0)" xlink:href="#ba"/></g><path fill="#fff" d="M175 0L67-191c6 58 2 128 3 191H24v-248h59L193-55c-6-58-2-129-3-193h46V0h-61" id="bJ"/><g id="ad"><use transform="matrix(0.05,0,0,0.05,0,0)" xlink:href="#bJ"/><use transform="matrix(0.05,0,0,0.05,12.950000000000001,0)" xlink:href="#aO"/><use transform="matrix(0.05,0,0,0.05,22.950000000000003,0)" xlink:href="#bb"/><use transform="matrix(0.05,0,0,0.05,38.95,0)" xlink:href="#aT"/></g><g id="ae"><use transform="matrix(0.05,0,0,0.05,0,0)" xlink:href="#bF"/><use transform="matrix(0.05,0,0,0.05,12.950000000000001,0)" xlink:href="#aO"/><use transform="matrix(0.05,0,0,0.05,22.950000000000003,0)" xlink:href="#aZ"/><use transform="matrix(0.05,0,0,0.05,28.900000000000002,0)" xlink:href="#aT"/></g><g id="af"><use transform="matrix(0.05,0,0,0.05,0,0)" xlink:href="#ba"/><use transform="matrix(0.05,0,0,0.05,10.950000000000001,0)" xlink:href="#bf"/></g><g id="ag"><use transform="matrix(0.05,0,0,0.05,0,0)" xlink:href="#bc"/><use transform="matrix(0.05,0,0,0.05,10.950000000000001,0)" xlink:href="#aV"/><use transform="matrix(0.05,0,0,0.05,15.950000000000001,0)" xlink:href="#aS"/><use transform="matrix(0.05,0,0,0.05,22.950000000000003,0)" xlink:href="#aZ"/><use transform="matrix(0.05,0,0,0.05,28.900000000000002,0)" xlink:href="#aQ"/></g><path fill="#fff" d="M67-125c0 54 23 88 75 88 28 0 53-7 68-21v-34h-60v-39h108v91C232-14 192 4 140 4 58 4 20-42 15-125 8-236 126-280 215-234c19 10 29 26 37 47l-47 15c-11-23-29-39-63-39-53 1-75 33-75 86" id="bK"/><g id="ah"><use transform="matrix(0.05,0,0,0.05,0,0)" xlink:href="#bK"/><use transform="matrix(0.05,0,0,0.05,14,0)" xlink:href="#aT"/><use transform="matrix(0.05,0,0,0.05,24,0)" xlink:href="#aU"/><use transform="matrix(0.05,0,0,0.05,34.95,0)" xlink:href="#be"/><use transform="matrix(0.05,0,0,0.05,45.900000000000006,0)" xlink:href="#aT"/><use transform="matrix(0.05,0,0,0.05,55.900000000000006,0)" xlink:href="#aS"/></g><path fill="#fff" d="M140-251c80 0 125 45 125 126S219 4 139 4C58 4 15-44 15-125s44-126 125-126zm-1 214c52 0 73-35 73-88 0-50-21-86-72-86-52 0-73 35-73 86s22 88 72 88" id="bL"/><g id="ai"><use transform="matrix(0.05,0,0,0.05,0,0)" xlink:href="#bL"/><use transform="matrix(0.05,0,0,0.05,14,0)" xlink:href="#aR"/><use transform="matrix(0.05,0,0,0.05,24,0)" xlink:href="#aR"/><use transform="matrix(0.05,0,0,0.05,34,0)" xlink:href="#aX"/><use transform="matrix(0.05,0,0,0.05,44.95,0)" xlink:href="#aM"/><use transform="matrix(0.05,0,0,0.05,55.900000000000006,0)" xlink:href="#aO"/><use transform="matrix(0.05,0,0,0.05,65.9,0)" xlink:href="#aZ"/><use transform="matrix(0.05,0,0,0.05,71.85000000000001,0)" xlink:href="#aV"/><use transform="matrix(0.05,0,0,0.05,76.85000000000001,0)" xlink:href="#ba"/><use transform="matrix(0.05,0,0,0.05,87.80000000000001,0)" xlink:href="#aU"/></g><path fill="#fafafa" d="M67-125c0 53 21 87 73 88 37 1 54-22 65-47l45 17C233-25 199 4 140 4 58 4 20-42 15-125 8-235 124-281 211-232c18 10 29 29 36 50l-46 12c-8-25-30-41-62-41-52 0-71 34-72 86" id="bM"/><g id="aj"><use transform="matrix(0.05,0,0,0.05,0,0)" xlink:href="#bM"/><use transform="matrix(0.05,0,0,0.05,12.950000000000001,0)" xlink:href="#bl"/><use transform="matrix(0.05,0,0,0.05,22.950000000000003,0)" xlink:href="#bz"/><use transform="matrix(0.05,0,0,0.05,27.950000000000003,0)" xlink:href="#aF"/><use transform="matrix(0.05,0,0,0.05,37.95,0)" xlink:href="#bm"/><use transform="matrix(0.05,0,0,0.05,48.900000000000006,0)" xlink:href="#bA"/><use transform="matrix(0.05,0,0,0.05,59.85,0)" xlink:href="#bl"/><use transform="matrix(0.05,0,0,0.05,69.85000000000001,0)" xlink:href="#aJ"/><use transform="matrix(0.05,0,0,0.05,76.85000000000001,0)" xlink:href="#aK"/></g><path fill="#333" d="M190 0L58-211 59 0H30v-248h39L202-35l-2-213h31V0h-41" id="bN"/><path fill="#333" d="M100-194c62-1 85 37 85 99 1 63-27 99-86 99S16-35 15-95c0-66 28-99 85-99zM99-20c44 1 53-31 53-75 0-43-8-75-51-75s-53 32-53 75 10 74 51 75" id="bO"/><g id="ak"><use transform="matrix(0.05,0,0,0.05,0,0)" xlink:href="#bN"/><use transform="matrix(0.05,0,0,0.05,12.950000000000001,0)" xlink:href="#bO"/></g><path fill="#fff" d="M230 0l2-204L168 0h-37L68-204 70 0H24v-248h70l56 185 57-185h69V0h-46" id="bP"/><g id="al"><use transform="matrix(0.05,0,0,0.05,0,0)" xlink:href="#bP"/><use transform="matrix(0.05,0,0,0.05,14.950000000000001,0)" xlink:href="#aO"/><use transform="matrix(0.05,0,0,0.05,24.950000000000003,0)" xlink:href="#aU"/><use transform="matrix(0.05,0,0,0.05,35.900000000000006,0)" xlink:href="#aX"/><use transform="matrix(0.05,0,0,0.05,46.85000000000001,0)" xlink:href="#aO"/><use transform="matrix(0.05,0,0,0.05,56.85,0)" xlink:href="#aN"/><use transform="matrix(0.05,0,0,0.05,61.85,0)" xlink:href="#aN"/><use transform="matrix(0.05,0,0,0.05,66.85000000000001,0)" xlink:href="#bi"/></g><g id="am"><use transform="matrix(0.05,0,0,0.05,0,0)" xlink:href="#aZ"/><use transform="matrix(0.05,0,0,0.05,5.95,0)" xlink:href="#bi"/><use transform="matrix(0.05,0,0,0.05,15.949999999999998,0)" xlink:href="#aM"/><use transform="matrix(0.05,0,0,0.05,26.899999999999995,0)" xlink:href="#aT"/></g><g id="an"><use transform="matrix(0.05,0,0,0.05,0,0)" xlink:href="#aV"/><use transform="matrix(0.05,0,0,0.05,5,0)" xlink:href="#aU"/></g><g id="ao"><use transform="matrix(0.05,0,0,0.05,0,0)" xlink:href="#aY"/><use transform="matrix(0.05,0,0,0.05,14,0)" xlink:href="#ba"/><use transform="matrix(0.05,0,0,0.05,24.950000000000003,0)" xlink:href="#aS"/><use transform="matrix(0.05,0,0,0.05,31.950000000000003,0)" xlink:href="#bj"/></g><path fill="#333" d="M137-103V0h-34v-103L8-248h37l75 118 75-118h37" id="bQ"/><path fill="#333" d="M100-194c63 0 86 42 84 106H49c0 40 14 67 53 68 26 1 43-12 49-29l28 8c-11 28-37 45-77 45C44 4 14-33 15-96c1-61 26-98 85-98zm52 81c6-60-76-77-97-28-3 7-6 17-6 28h103" id="bR"/><path fill="#333" d="M135-143c-3-34-86-38-87 0 15 53 115 12 119 90S17 21 10-45l28-5c4 36 97 45 98 0-10-56-113-15-118-90-4-57 82-63 122-42 12 7 21 19 24 35" id="bS"/><g id="ap"><use transform="matrix(0.05,0,0,0.05,0,0)" xlink:href="#bQ"/><use transform="matrix(0.05,0,0,0.05,10.35,0)" xlink:href="#bR"/><use transform="matrix(0.05,0,0,0.05,20.35,0)" xlink:href="#bS"/></g><path fill="#ef8d22" d="M67-125c0 54 23 88 75 88 28 0 53-7 68-21v-34h-60v-39h108v91C232-14 192 4 140 4 58 4 20-42 15-125 8-236 126-280 215-234c19 10 29 26 37 47l-47 15c-11-23-29-39-63-39-53 1-75 33-75 86" id="bT"/><path fill="#ef8d22" d="M185-48c-13 30-37 53-82 52C43 2 14-33 14-96s30-98 90-98c62 0 83 45 84 108H66c0 31 8 55 39 56 18 0 30-7 34-22zm-45-69c5-46-57-63-70-21-2 6-4 13-4 21h74" id="bU"/><path fill="#ef8d22" d="M115-3C79 11 28 4 28-45v-112H4v-33h27l15-45h31v45h36v33H77v99c-1 23 16 31 38 25v30" id="bV"/><g id="aq"><use transform="matrix(0.09320987654320984,0,0,0.09320987654320984,0,0)" xlink:href="#bT"/><use transform="matrix(0.09320987654320984,0,0,0.09320987654320984,26.098765432098755,0)" xlink:href="#bU"/><use transform="matrix(0.09320987654320984,0,0,0.09320987654320984,44.74074074074072,0)" xlink:href="#bV"/></g><path fill="#ef8d22" d="M137-138c1-29-70-34-71-4 15 46 118 7 119 86 1 83-164 76-172 9l43-7c4 19 20 25 44 25 33 8 57-30 24-41C81-84 22-81 20-136c-2-80 154-74 161-7" id="bW"/><path fill="#ef8d22" d="M133-34C117-15 103 5 69 4 32 3 11-16 11-54c-1-60 55-63 116-61 1-26-3-47-28-47-18 1-26 9-28 27l-52-2c7-38 36-58 82-57s74 22 75 68l1 82c-1 14 12 18 25 15v27c-30 8-71 5-69-32zm-48 3c29 0 43-24 42-57-32 0-66-3-65 30 0 17 8 27 23 27" id="bX"/><path fill="#ef8d22" d="M135-150c-39-12-60 13-60 57V0H25l-1-190h47c2 13-1 29 3 40 6-28 27-53 61-41v41" id="bY"/><path fill="#ef8d22" d="M88-194c31-1 46 15 58 34l-1-101h50l1 261h-48c-2-10 0-23-3-31C134-8 116 4 84 4 32 4 16-41 15-95c0-56 19-97 73-99zm17 164c33 0 40-30 41-66 1-37-9-64-41-64s-38 30-39 65c0 43 13 65 39 65" id="bZ"/><g id="ar"><use transform="matrix(0.09320987654320984,0,0,0.09320987654320984,0,0)" xlink:href="#bW"/><use transform="matrix(0.09320987654320984,0,0,0.09320987654320984,18.641975308641968,0)" xlink:href="#bV"/><use transform="matrix(0.09320987654320984,0,0,0.09320987654320984,29.733950617283938,0)" xlink:href="#bX"/><use transform="matrix(0.09320987654320984,0,0,0.09320987654320984,48.375925925925905,0)" xlink:href="#bY"/><use transform="matrix(0.09320987654320984,0,0,0.09320987654320984,61.425308641975285,0)" xlink:href="#bV"/><use transform="matrix(0.09320987654320984,0,0,0.09320987654320984,72.51728395061726,0)" xlink:href="#bU"/><use transform="matrix(0.09320987654320984,0,0,0.09320987654320984,91.15925925925922,0)" xlink:href="#bZ"/></g><path fill="#19967d" d="M169-182c-1-43-94-46-97-3 18 66 151 10 154 114 3 95-165 93-204 36-6-8-10-19-12-30l50-8c3 46 112 56 116 5-17-69-150-10-154-114-4-87 153-88 188-35 5 8 8 18 10 28" id="ca"/><path fill="#19967d" d="M185-48c-13 30-37 53-82 52C43 2 14-33 14-96s30-98 90-98c62 0 83 45 84 108H66c0 31 8 55 39 56 18 0 30-7 34-22zm-45-69c5-46-57-63-70-21-2 6-4 13-4 21h74" id="cb"/><path fill="#19967d" d="M115-3C79 11 28 4 28-45v-112H4v-33h27l15-45h31v45h36v33H77v99c-1 23 16 31 38 25v30" id="cc"/><path fill="#19967d" d="M85 4C-2 5 27-109 22-190h50c7 57-23 150 33 157 60-5 35-97 40-157h50l1 190h-47c-2-12 1-28-3-38-12 25-28 42-61 42" id="cd"/><path fill="#19967d" d="M135-194c53 0 70 44 70 98 0 56-19 98-73 100-31 1-45-17-59-34 3 33 2 69 2 105H25l-1-265h48c2 10 0 23 3 31 11-24 29-35 60-35zM114-30c33 0 39-31 40-66 0-38-9-64-40-64-56 0-55 130 0 130" id="ce"/><g id="as"><use transform="matrix(0.09320987654320984,0,0,0.09320987654320984,0,0)" xlink:href="#ca"/><use transform="matrix(0.09320987654320984,0,0,0.09320987654320984,22.37037037037036,0)" xlink:href="#cb"/><use transform="matrix(0.09320987654320984,0,0,0.09320987654320984,41.01234567901233,0)" xlink:href="#cc"/><use transform="matrix(0.09320987654320984,0,0,0.09320987654320984,52.1043209876543,0)" xlink:href="#cd"/><use transform="matrix(0.09320987654320984,0,0,0.09320987654320984,72.51728395061726,0)" xlink:href="#ce"/></g><path fill="#19967d" d="M135-150c-39-12-60 13-60 57V0H25l-1-190h47c2 13-1 29 3 40 6-28 27-53 61-41v41" id="cf"/><path fill="#19967d" d="M110-194c64 0 96 36 96 99 0 64-35 99-97 99-61 0-95-36-95-99 0-62 34-99 96-99zm-1 164c35 0 45-28 45-65 0-40-10-65-43-65-34 0-45 26-45 65 0 36 10 65 43 65" id="cg"/><path fill="#19967d" d="M121-226c-27-7-43 5-38 36h38v33H83V0H34v-157H6v-33h28c-9-59 32-81 87-68v32" id="ch"/><path fill="#19967d" d="M25-224v-37h50v37H25zM25 0v-190h50V0H25" id="ci"/><path fill="#19967d" d="M25 0v-261h50V0H25" id="cj"/><g id="at"><use transform="matrix(0.09320987654320984,0,0,0.09320987654320984,0,0)" xlink:href="#ce"/><use transform="matrix(0.09320987654320984,0,0,0.09320987654320984,20.412962962962954,0)" xlink:href="#cf"/><use transform="matrix(0.09320987654320984,0,0,0.09320987654320984,33.46234567901233,0)" xlink:href="#cg"/><use transform="matrix(0.09320987654320984,0,0,0.09320987654320984,53.87530864197529,0)" xlink:href="#ch"/><use transform="matrix(0.09320987654320984,0,0,0.09320987654320984,64.96728395061726,0)" xlink:href="#ci"/><use transform="matrix(0.09320987654320984,0,0,0.09320987654320984,74.28827160493825,0)" xlink:href="#cj"/><use transform="matrix(0.09320987654320984,0,0,0.09320987654320984,83.60925925925923,0)" xlink:href="#cb"/></g><path fill="#de5f85" d="M24-248c93 1 206-16 204 79-1 75-69 88-152 82V0H24v-248zm52 121c47 0 100 7 100-41 0-47-54-39-100-39v80" id="ck"/><path fill="#de5f85" d="M135-150c-39-12-60 13-60 57V0H25l-1-190h47c2 13-1 29 3 40 6-28 27-53 61-41v41" id="cl"/><path fill="#de5f85" d="M185-48c-13 30-37 53-82 52C43 2 14-33 14-96s30-98 90-98c62 0 83 45 84 108H66c0 31 8 55 39 56 18 0 30-7 34-22zm-45-69c5-46-57-63-70-21-2 6-4 13-4 21h74" id="cm"/><path fill="#de5f85" d="M121-226c-27-7-43 5-38 36h38v33H83V0H34v-157H6v-33h28c-9-59 32-81 87-68v32" id="cn"/><path fill="#de5f85" d="M135-194c87-1 58 113 63 194h-50c-7-57 23-157-34-157-59 0-34 97-39 157H25l-1-190h47c2 12-1 28 3 38 12-26 28-41 61-42" id="co"/><path fill="#de5f85" d="M190-63c-7 42-38 67-86 67-59 0-84-38-90-98-12-110 154-137 174-36l-49 2c-2-19-15-32-35-32-30 0-35 28-38 64-6 74 65 87 74 30" id="cp"/><g id="au"><use transform="matrix(0.09320987654320984,0,0,0.09320987654320984,0,0)" xlink:href="#ck"/><use transform="matrix(0.09320987654320984,0,0,0.09320987654320984,22.37037037037036,0)" xlink:href="#cl"/><use transform="matrix(0.09320987654320984,0,0,0.09320987654320984,35.41975308641974,0)" xlink:href="#cm"/><use transform="matrix(0.09320987654320984,0,0,0.09320987654320984,54.06172839506171,0)" xlink:href="#cn"/><use transform="matrix(0.09320987654320984,0,0,0.09320987654320984,65.15370370370368,0)" xlink:href="#cm"/><use transform="matrix(0.09320987654320984,0,0,0.09320987654320984,83.79567901234566,0)" xlink:href="#cl"/><use transform="matrix(0.09320987654320984,0,0,0.09320987654320984,96.84506172839504,0)" xlink:href="#cm"/><use transform="matrix(0.09320987654320984,0,0,0.09320987654320984,115.48703703703701,0)" xlink:href="#co"/><use transform="matrix(0.09320987654320984,0,0,0.09320987654320984,135.89999999999995,0)" xlink:href="#cp"/><use transform="matrix(0.09320987654320984,0,0,0.09320987654320984,154.54197530864192,0)" xlink:href="#cm"/></g><path fill="#de5f85" d="M137-138c1-29-70-34-71-4 15 46 118 7 119 86 1 83-164 76-172 9l43-7c4 19 20 25 44 25 33 8 57-30 24-41C81-84 22-81 20-136c-2-80 154-74 161-7" id="cq"/><path fill="#de5f85" d="M115-3C79 11 28 4 28-45v-112H4v-33h27l15-45h31v45h36v33H77v99c-1 23 16 31 38 25v30" id="cr"/><path fill="#de5f85" d="M25-224v-37h50v37H25zM25 0v-190h50V0H25" id="cs"/><path fill="#de5f85" d="M195-6C206 82 75 100 31 46c-4-6-6-13-8-21l49-6c3 16 16 24 34 25 40 0 42-37 40-79-11 22-30 35-61 35-53 0-70-43-70-97 0-56 18-96 73-97 30 0 46 14 59 34l2-30h47zm-90-29c32 0 41-27 41-63 0-35-9-62-40-62-32 0-39 29-40 63 0 36 9 62 39 62" id="ct"/><g id="av"><use transform="matrix(0.09320987654320984,0,0,0.09320987654320984,0,0)" xlink:href="#cq"/><use transform="matrix(0.09320987654320984,0,0,0.09320987654320984,18.641975308641968,0)" xlink:href="#cm"/><use transform="matrix(0.09320987654320984,0,0,0.09320987654320984,37.283950617283935,0)" xlink:href="#cr"/><use transform="matrix(0.09320987654320984,0,0,0.09320987654320984,48.375925925925905,0)" xlink:href="#cr"/><use transform="matrix(0.09320987654320984,0,0,0.09320987654320984,59.467901234567876,0)" xlink:href="#cs"/><use transform="matrix(0.09320987654320984,0,0,0.09320987654320984,68.78888888888886,0)" xlink:href="#co"/><use transform="matrix(0.09320987654320984,0,0,0.09320987654320984,89.20185185185181,0)" xlink:href="#ct"/><use transform="matrix(0.09320987654320984,0,0,0.09320987654320984,109.61481481481476,0)" xlink:href="#cq"/></g><path fill="#0c7cba" d="M67-125c0 54 23 88 75 88 28 0 53-7 68-21v-34h-60v-39h108v91C232-14 192 4 140 4 58 4 20-42 15-125 8-236 126-280 215-234c19 10 29 26 37 47l-47 15c-11-23-29-39-63-39-53 1-75 33-75 86" id="cu"/><path fill="#0c7cba" d="M185-48c-13 30-37 53-82 52C43 2 14-33 14-96s30-98 90-98c62 0 83 45 84 108H66c0 31 8 55 39 56 18 0 30-7 34-22zm-45-69c5-46-57-63-70-21-2 6-4 13-4 21h74" id="cv"/><path fill="#0c7cba" d="M135-194c87-1 58 113 63 194h-50c-7-57 23-157-34-157-59 0-34 97-39 157H25l-1-190h47c2 12-1 28 3 38 12-26 28-41 61-42" id="cw"/><path fill="#0c7cba" d="M135-150c-39-12-60 13-60 57V0H25l-1-190h47c2 13-1 29 3 40 6-28 27-53 61-41v41" id="cx"/><path fill="#0c7cba" d="M133-34C117-15 103 5 69 4 32 3 11-16 11-54c-1-60 55-63 116-61 1-26-3-47-28-47-18 1-26 9-28 27l-52-2c7-38 36-58 82-57s74 22 75 68l1 82c-1 14 12 18 25 15v27c-30 8-71 5-69-32zm-48 3c29 0 43-24 42-57-32 0-66-3-65 30 0 17 8 27 23 27" id="cy"/><path fill="#0c7cba" d="M115-3C79 11 28 4 28-45v-112H4v-33h27l15-45h31v45h36v33H77v99c-1 23 16 31 38 25v30" id="cz"/><g id="aw"><use transform="matrix(0.09320987654320984,0,0,0.09320987654320984,0,0)" xlink:href="#cu"/><use transform="matrix(0.09320987654320984,0,0,0.09320987654320984,26.098765432098755,0)" xlink:href="#cv"/><use transform="matrix(0.09320987654320984,0,0,0.09320987654320984,44.74074074074072,0)" xlink:href="#cw"/><use transform="matrix(0.09320987654320984,0,0,0.09320987654320984,65.15370370370367,0)" xlink:href="#cv"/><use transform="matrix(0.09320987654320984,0,0,0.09320987654320984,83.79567901234563,0)" xlink:href="#cx"/><use transform="matrix(0.09320987654320984,0,0,0.09320987654320984,96.84506172839502,0)" xlink:href="#cy"/><use transform="matrix(0.09320987654320984,0,0,0.09320987654320984,115.48703703703697,0)" xlink:href="#cz"/><use transform="matrix(0.09320987654320984,0,0,0.09320987654320984,126.57901234567893,0)" xlink:href="#cv"/></g><path fill="#0c7cba" d="M137-138c1-29-70-34-71-4 15 46 118 7 119 86 1 83-164 76-172 9l43-7c4 19 20 25 44 25 33 8 57-30 24-41C81-84 22-81 20-136c-2-80 154-74 161-7" id="cA"/><path fill="#0c7cba" d="M190-63c-7 42-38 67-86 67-59 0-84-38-90-98-12-110 154-137 174-36l-49 2c-2-19-15-32-35-32-30 0-35 28-38 64-6 74 65 87 74 30" id="cB"/><path fill="#0c7cba" d="M114-157C55-157 80-60 75 0H25v-261h50l-1 109c12-26 28-41 61-42 86-1 58 113 63 194h-50c-7-57 23-157-34-157" id="cC"/><path fill="#0c7cba" d="M88-194c31-1 46 15 58 34l-1-101h50l1 261h-48c-2-10 0-23-3-31C134-8 116 4 84 4 32 4 16-41 15-95c0-56 19-97 73-99zm17 164c33 0 40-30 41-66 1-37-9-64-41-64s-38 30-39 65c0 43 13 65 39 65" id="cD"/><path fill="#0c7cba" d="M85 4C-2 5 27-109 22-190h50c7 57-23 150 33 157 60-5 35-97 40-157h50l1 190h-47c-2-12 1-28-3-38-12 25-28 42-61 42" id="cE"/><path fill="#0c7cba" d="M25 0v-261h50V0H25" id="cF"/><g id="ax"><use transform="matrix(0.09320987654320984,0,0,0.09320987654320984,0,0)" xlink:href="#cA"/><use transform="matrix(0.09320987654320984,0,0,0.09320987654320984,18.641975308641968,0)" xlink:href="#cB"/><use transform="matrix(0.09320987654320984,0,0,0.09320987654320984,37.283950617283935,0)" xlink:href="#cC"/><use transform="matrix(0.09320987654320984,0,0,0.09320987654320984,57.696913580246886,0)" xlink:href="#cv"/><use transform="matrix(0.09320987654320984,0,0,0.09320987654320984,76.33888888888885,0)" xlink:href="#cD"/><use transform="matrix(0.09320987654320984,0,0,0.09320987654320984,96.75185185185178,0)" xlink:href="#cE"/><use transform="matrix(0.09320987654320984,0,0,0.09320987654320984,117.16481481481475,0)" xlink:href="#cF"/><use transform="matrix(0.09320987654320984,0,0,0.09320987654320984,126.48580246913572,0)" xlink:href="#cv"/></g><path fill="#c92d39" d="M136-208V0H84v-208H4v-40h212v40h-80" id="cG"/><path fill="#c92d39" d="M133-34C117-15 103 5 69 4 32 3 11-16 11-54c-1-60 55-63 116-61 1-26-3-47-28-47-18 1-26 9-28 27l-52-2c7-38 36-58 82-57s74 22 75 68l1 82c-1 14 12 18 25 15v27c-30 8-71 5-69-32zm-48 3c29 0 43-24 42-57-32 0-66-3-65 30 0 17 8 27 23 27" id="cH"/><path fill="#c92d39" d="M147 0L96-86 75-71V0H25v-261h50v150l67-79h53l-66 74L201 0h-54" id="cI"/><path fill="#c92d39" d="M185-48c-13 30-37 53-82 52C43 2 14-33 14-96s30-98 90-98c62 0 83 45 84 108H66c0 31 8 55 39 56 18 0 30-7 34-22zm-45-69c5-46-57-63-70-21-2 6-4 13-4 21h74" id="cJ"/><g id="ay"><use transform="matrix(0.09320987654320984,0,0,0.09320987654320984,0,0)" xlink:href="#cG"/><use transform="matrix(0.09320987654320984,0,0,0.09320987654320984,17.89629629629629,0)" xlink:href="#cH"/><use transform="matrix(0.09320987654320984,0,0,0.09320987654320984,36.53827160493826,0)" xlink:href="#cI"/><use transform="matrix(0.09320987654320984,0,0,0.09320987654320984,55.18024691358022,0)" xlink:href="#cJ"/></g><path fill="#c92d39" d="M135-194c52 0 70 43 70 98 0 56-19 99-73 100-30 1-46-15-58-35L72 0H24l1-261h50v104c11-23 29-37 60-37zM114-30c31 0 40-27 40-66 0-37-7-63-39-63s-41 28-41 65c0 36 8 64 40 64" id="cK"/><path fill="#c92d39" d="M135-150c-39-12-60 13-60 57V0H25l-1-190h47c2 13-1 29 3 40 6-28 27-53 61-41v41" id="cL"/><path fill="#c92d39" d="M137-138c1-29-70-34-71-4 15 46 118 7 119 86 1 83-164 76-172 9l43-7c4 19 20 25 44 25 33 8 57-30 24-41C81-84 22-81 20-136c-2-80 154-74 161-7" id="cM"/><g id="az"><use transform="matrix(0.09320987654320984,0,0,0.09320987654320984,0,0)" xlink:href="#cK"/><use transform="matrix(0.09320987654320984,0,0,0.09320987654320984,20.412962962962954,0)" xlink:href="#cL"/><use transform="matrix(0.09320987654320984,0,0,0.09320987654320984,33.46234567901233,0)" xlink:href="#cJ"/><use transform="matrix(0.09320987654320984,0,0,0.09320987654320984,52.1043209876543,0)" xlink:href="#cH"/><use transform="matrix(0.09320987654320984,0,0,0.09320987654320984,70.74629629629626,0)" xlink:href="#cI"/><use transform="matrix(0.09320987654320984,0,0,0.09320987654320984,89.38827160493824,0)" xlink:href="#cM"/></g><path fill="#c92d39" d="M168-19C124 19 11 11 16-68c3-43 29-60 59-75-25-44-12-111 53-106 37 3 64 15 64 52 0 43-40 52-69 68 12 22 27 41 43 59 14-19 21-38 28-64l37 13c-8 29-19 52-34 74 12 10 32 16 52 10v35c-28 11-65-2-81-17zm-58-139c19-9 43-14 43-39 0-14-10-22-25-22-34 0-33 41-18 61zM60-68c-3 40 55 47 79 25-18-20-34-42-48-67-18 8-30 20-31 42" id="cN"/><use transform="matrix(0.09320987654320984,0,0,0.09320987654320984,0,0)" xlink:href="#cN" id="aA"/><path fill="#c92d39" d="M110-194c64 0 96 36 96 99 0 64-35 99-97 99-61 0-95-36-95-99 0-62 34-99 96-99zm-1 164c35 0 45-28 45-65 0-40-10-65-43-65-34 0-45 26-45 65 0 36 10 65 43 65" id="cO"/><path fill="#c92d39" d="M190-63c-7 42-38 67-86 67-59 0-84-38-90-98-12-110 154-137 174-36l-49 2c-2-19-15-32-35-32-30 0-35 28-38 64-6 74 65 87 74 30" id="cP"/><path fill="#c92d39" d="M25-224v-37h50v37H25zM25 0v-190h50V0H25" id="cQ"/><path fill="#c92d39" d="M25 0v-261h50V0H25" id="cR"/><path fill="#c92d39" d="M12 0v-35l95-120H19v-35h142v35L67-36h103V0H12" id="cS"/><g id="aB"><use transform="matrix(0.09320987654320984,0,0,0.09320987654320984,0,0)" xlink:href="#cM"/><use transform="matrix(0.09320987654320984,0,0,0.09320987654320984,18.641975308641968,0)" xlink:href="#cO"/><use transform="matrix(0.09320987654320984,0,0,0.09320987654320984,39.054938271604925,0)" xlink:href="#cP"/><use transform="matrix(0.09320987654320984,0,0,0.09320987654320984,57.696913580246886,0)" xlink:href="#cQ"/><use transform="matrix(0.09320987654320984,0,0,0.09320987654320984,67.01790123456787,0)" xlink:href="#cH"/><use transform="matrix(0.09320987654320984,0,0,0.09320987654320984,85.65987654320983,0)" xlink:href="#cR"/><use transform="matrix(0.09320987654320984,0,0,0.09320987654320984,94.98086419753082,0)" xlink:href="#cQ"/><use transform="matrix(0.09320987654320984,0,0,0.09320987654320984,104.30185185185181,0)" xlink:href="#cS"/><use transform="matrix(0.09320987654320984,0,0,0.09320987654320984,121.07962962962958,0)" xlink:href="#cJ"/></g><path fill="#7ab648" d="M240-174c0 40-23 61-54 70L253 0h-59l-57-94H76V0H24v-248c93 4 217-23 216 74zM76-134c48-2 112 12 112-38 0-48-66-32-112-35v73" id="cT"/><path fill="#7ab648" d="M185-48c-13 30-37 53-82 52C43 2 14-33 14-96s30-98 90-98c62 0 83 45 84 108H66c0 31 8 55 39 56 18 0 30-7 34-22zm-45-69c5-46-57-63-70-21-2 6-4 13-4 21h74" id="cU"/><path fill="#7ab648" d="M128 0H69L1-190h53L99-40l48-150h52" id="cV"/><path fill="#7ab648" d="M25-224v-37h50v37H25zM25 0v-190h50V0H25" id="cW"/><path fill="#7ab648" d="M231 0h-52l-39-155L100 0H48L-1-190h46L77-45c9-52 24-97 36-145h53l37 145 32-145h46" id="cX"/><g id="aC"><use transform="matrix(0.09320987654320984,0,0,0.09320987654320984,0,0)" xlink:href="#cT"/><use transform="matrix(0.09320987654320984,0,0,0.09320987654320984,24.141358024691346,0)" xlink:href="#cU"/><use transform="matrix(0.09320987654320984,0,0,0.09320987654320984,42.78333333333332,0)" xlink:href="#cV"/><use transform="matrix(0.09320987654320984,0,0,0.09320987654320984,61.425308641975285,0)" xlink:href="#cW"/><use transform="matrix(0.09320987654320984,0,0,0.09320987654320984,70.74629629629626,0)" xlink:href="#cU"/><use transform="matrix(0.09320987654320984,0,0,0.09320987654320984,89.38827160493824,0)" xlink:href="#cX"/></g><path fill="#7ab648" d="M137-138c1-29-70-34-71-4 15 46 118 7 119 86 1 83-164 76-172 9l43-7c4 19 20 25 44 25 33 8 57-30 24-41C81-84 22-81 20-136c-2-80 154-74 161-7" id="cY"/><path fill="#7ab648" d="M190-63c-7 42-38 67-86 67-59 0-84-38-90-98-12-110 154-137 174-36l-49 2c-2-19-15-32-35-32-30 0-35 28-38 64-6 74 65 87 74 30" id="cZ"/><path fill="#7ab648" d="M114-157C55-157 80-60 75 0H25v-261h50l-1 109c12-26 28-41 61-42 86-1 58 113 63 194h-50c-7-57 23-157-34-157" id="da"/><path fill="#7ab648" d="M88-194c31-1 46 15 58 34l-1-101h50l1 261h-48c-2-10 0-23-3-31C134-8 116 4 84 4 32 4 16-41 15-95c0-56 19-97 73-99zm17 164c33 0 40-30 41-66 1-37-9-64-41-64s-38 30-39 65c0 43 13 65 39 65" id="db"/><path fill="#7ab648" d="M85 4C-2 5 27-109 22-190h50c7 57-23 150 33 157 60-5 35-97 40-157h50l1 190h-47c-2-12 1-28-3-38-12 25-28 42-61 42" id="dc"/><path fill="#7ab648" d="M25 0v-261h50V0H25" id="dd"/><g id="aD"><use transform="matrix(0.09320987654320984,0,0,0.09320987654320984,0,0)" xlink:href="#cY"/><use transform="matrix(0.09320987654320984,0,0,0.09320987654320984,18.641975308641968,0)" xlink:href="#cZ"/><use transform="matrix(0.09320987654320984,0,0,0.09320987654320984,37.283950617283935,0)" xlink:href="#da"/><use transform="matrix(0.09320987654320984,0,0,0.09320987654320984,57.696913580246886,0)" xlink:href="#cU"/><use transform="matrix(0.09320987654320984,0,0,0.09320987654320984,76.33888888888885,0)" xlink:href="#db"/><use transform="matrix(0.09320987654320984,0,0,0.09320987654320984,96.75185185185178,0)" xlink:href="#dc"/><use transform="matrix(0.09320987654320984,0,0,0.09320987654320984,117.16481481481475,0)" xlink:href="#dd"/><use transform="matrix(0.09320987654320984,0,0,0.09320987654320984,126.48580246913572,0)" xlink:href="#cU"/></g></defs></g></svg>